<svg version="1.2" xmlns="http://www.w3.org/2000/svg" viewBox="0 0 1249 1590" width="1249" height="1590">
	<title>fed-hermes-logo-primary-dark-light-svg</title>
	<style>
		.s0 { fill: #00a3e0 } 
		.s1 { fill: #012169 } 
	</style>
	<g id="Layer">
		<path id="Layer" class="s0" d="m133 885.5c-35.1 0-68.7 13.9-93.5 38.7-24.8 24.8-38.8 58.5-38.8 93.6 0 35.1 14 68.7 38.8 93.5 24.8 24.8 58.4 38.8 93.5 38.8h288.8c12.1 0.9 24.2 0.4 36.1-1.4 12-1.9 23.7-5.2 34.9-9.7 11.2-4.6 21.8-10.5 31.7-17.5 9.8-7.1 18.8-15.2 26.7-24.3 35.3-48.4 14.9-79.4 27.3-217-57.5 4.8-123.5 4.8-157.1 4.8z"/>
		<path id="Layer" class="s0" d="m133 445.7c-35.1 0-68.7 14-93.5 38.8-24.8 24.8-38.8 58.4-38.8 93.5 0 35.1 14 68.8 38.8 93.6 24.8 24.8 58.4 38.7 93.5 38.7h664.4c12.1 1 24.2 0.5 36.2-1.4 11.9-1.8 23.6-5.1 34.8-9.7 11.2-4.6 21.9-10.4 31.7-17.5 9.8-7 18.8-15.2 26.8-24.3 35.3-48.3 14.8-79.4 27.2-217-57.5 4.9-123.4 4.9-157.1 4.9z"/>
		<path id="Layer" class="s0" d="m1091.9 6h-958.9c-35.1 0-68.7 13.9-93.5 38.7-24.8 24.8-38.8 58.5-38.8 93.6 0 35.1 14 68.7 38.8 93.5 24.8 24.8 58.4 38.8 93.5 38.8h959.2c12.1 0.9 24.2 0.4 36.2-1.4 11.9-1.9 23.6-5.2 34.8-9.7 11.2-4.6 21.8-10.5 31.7-17.5 9.8-7.1 18.8-15.2 26.8-24.3 35.2-48.5 14.9-79.4 27.3-217.1-57.5 5.4-123.4 5.4-157.1 5.4z"/>
		<path id="Layer" class="s1" d="m145.3 1325.2h-12.3c-35.1 0-68.7 14-93.5 38.8-24.8 24.8-38.8 58.5-38.8 93.5 0 35.1 14 68.8 38.8 93.6 24.8 24.8 58.4 38.7 93.5 38.7h5.8c4.3 0 8.9 0 13.3-0.7 9.5-0.7 18.8-2.4 27.9-5.1 9-2.6 17.8-6.2 26.1-10.7 8.3-4.5 16.2-9.8 23.4-15.9 7.2-6 13.8-12.9 19.6-20.3 35.3-48.3 14.9-79.4 27.3-217-45.1 3.8-95.2 4.6-131.1 5.1z"/>
	</g>
</svg>