<?xml version="1.0" standalone="no"?>
<!DOCTYPE svg PUBLIC "-//W3C//DTD SVG 20010904//EN"
 "http://www.w3.org/TR/2001/REC-SVG-20010904/DTD/svg10.dtd">
<svg version="1.0" xmlns="http://www.w3.org/2000/svg"
 width="1125.000000pt" height="1867.000000pt" viewBox="0 0 1125.000000 1867.000000"
 preserveAspectRatio="xMidYMid meet">
<metadata>
Created by potrace 1.16, written by Peter Selinger 2001-2019
</metadata>
<g transform="translate(0.000000,1867.000000) scale(0.100000,-0.100000)"
fill="#000000" stroke="none">
<path d="M6277 15453 c-4 -3 -49 -6 -101 -5 -51 1 -129 -5 -172 -13 -44 -8
-95 -15 -114 -15 -19 0 -100 -11 -180 -26 -159 -28 -301 -77 -500 -170 -63
-30 -119 -54 -123 -54 -5 0 -21 -8 -35 -19 -15 -10 -67 -40 -117 -66 -49 -26
-108 -60 -129 -76 -50 -36 -73 -37 -89 -2 -12 27 -12 27 -17 -17 -5 -41 -10
-48 -52 -75 -26 -16 -73 -47 -105 -67 -32 -20 -67 -40 -78 -44 -11 -5 -36 -19
-55 -32 -19 -13 -66 -39 -103 -58 -42 -22 -72 -44 -79 -59 -6 -14 -17 -25 -23
-25 -6 0 -61 -47 -121 -105 -60 -58 -117 -107 -126 -110 -9 -4 -27 -22 -39
-41 -12 -19 -36 -45 -54 -57 -75 -51 -144 -108 -165 -137 -12 -16 -26 -30 -31
-30 -19 0 -100 -73 -116 -104 -9 -17 -33 -57 -54 -89 -22 -32 -39 -67 -39 -77
0 -10 -9 -22 -20 -25 -27 -9 -47 -45 -25 -45 9 0 18 -7 21 -15 7 -17 -45 -106
-87 -150 -96 -101 -130 -143 -135 -165 -2 -14 -9 -38 -15 -55 -60 -171 -72
-221 -66 -271 2 -25 -1 -61 -9 -82 -7 -20 -13 -32 -14 -25 0 20 -28 3 -34 -21
-5 -21 -26 -153 -46 -296 -19 -130 -52 -263 -72 -291 -16 -21 -22 -42 -21 -71
1 -26 -5 -51 -16 -67 -10 -14 -21 -39 -25 -56 -4 -16 -26 -51 -49 -77 -23 -26
-69 -79 -102 -119 -33 -39 -84 -99 -112 -132 -41 -46 -53 -67 -55 -96 0 -20
-2 -49 -3 -65 -1 -15 -21 -69 -45 -120 -23 -50 -51 -109 -61 -131 -18 -40 -59
-179 -85 -290 -8 -33 -21 -76 -28 -95 -36 -92 -47 -358 -16 -395 16 -19 18
-78 6 -142 -8 -40 -7 -43 17 -52 25 -10 26 -14 24 -74 -2 -56 -4 -63 -20 -59
-18 5 -18 3 -1 -34 9 -22 19 -51 21 -66 4 -21 10 -26 31 -25 23 2 27 -4 40
-47 10 -37 11 -55 3 -73 -6 -13 -11 -36 -11 -50 0 -15 -7 -35 -17 -45 -14 -15
-14 -22 -3 -42 15 -30 7 -56 -20 -63 -11 -3 -20 -11 -20 -18 0 -19 27 -26 34
-9 3 8 13 14 22 14 13 0 15 -7 11 -37 -3 -21 -10 -70 -15 -109 -11 -81 -24
-110 -52 -119 -20 -6 -71 -102 -83 -155 -36 -157 -33 -153 -114 -221 -106 -91
-196 -153 -283 -194 -41 -20 -84 -41 -95 -47 -36 -21 -69 -37 -145 -73 -86
-41 -168 -86 -301 -168 -76 -46 -110 -76 -179 -154 -144 -165 -178 -220 -209
-345 -16 -64 -22 -121 -23 -220 -3 -176 8 -376 21 -411 13 -33 -7 -124 -40
-189 -10 -20 -19 -50 -19 -66 0 -16 -7 -35 -15 -42 -8 -7 -20 -31 -27 -54 -23
-79 -156 -227 -229 -256 -46 -18 -89 -54 -89 -74 0 -8 -11 -21 -24 -28 -84
-47 -187 -92 -291 -128 -66 -23 -131 -47 -145 -53 -14 -6 -41 -16 -60 -22
l-35 -11 -3 -687 c-2 -773 -9 -701 75 -814 21 -28 50 -71 65 -95 15 -23 52
-80 82 -126 46 -71 56 -93 61 -147 6 -49 3 -70 -10 -99 -23 -48 -101 -117
-198 -173 l-77 -45 0 -264 c0 -145 3 -264 7 -264 3 0 22 12 42 28 43 33 106
62 133 62 17 0 19 -5 14 -25 -4 -16 -2 -25 5 -25 23 0 125 55 181 97 32 24 79
53 105 64 76 32 97 42 113 55 8 6 40 22 70 34 30 13 71 35 90 50 42 32 101 62
108 55 3 -3 -28 -36 -69 -74 -75 -70 -84 -90 -34 -71 35 13 38 11 20 -24 -8
-16 -15 -39 -15 -52 0 -13 -5 -33 -12 -43 -20 -32 4 -71 43 -71 24 0 43 12 87
58 32 31 79 71 105 89 59 39 131 105 183 168 45 55 142 132 169 135 52 6 65 0
81 -37 38 -88 93 -267 88 -287 -3 -15 5 -34 25 -60 17 -21 31 -48 31 -60 0
-11 14 -46 31 -76 17 -30 43 -86 59 -125 71 -178 180 -397 321 -650 191 -340
285 -544 409 -885 15 -41 47 -124 70 -185 23 -60 50 -132 60 -160 18 -48 38
-101 95 -250 14 -38 35 -92 45 -120 10 -27 37 -97 59 -155 22 -58 75 -211 118
-340 42 -129 85 -246 95 -259 10 -13 18 -28 18 -34 0 -6 13 -40 29 -76 65
-145 151 -372 151 -400 0 -32 19 -81 50 -126 11 -16 20 -38 20 -47 0 -9 5 -29
12 -45 7 -15 24 -62 38 -103 l25 -75 239 -3 c184 -2 241 1 247 10 7 10 11 10
21 0 9 -9 68 -12 222 -12 213 1 246 6 246 39 0 7 4 10 9 7 5 -3 14 1 21 9 14
17 30 20 30 4 0 -5 -5 -7 -12 -3 -6 4 -8 3 -5 -3 4 -6 0 -13 -8 -17 -17 -6
-21 -36 -4 -36 5 0 7 5 4 11 -8 13 23 38 48 39 12 0 17 -8 17 -25 0 -24 10
-32 23 -18 4 3 2 12 -4 19 -8 10 -7 18 5 30 9 8 14 20 10 25 -13 22 29 21 49
-2 19 -20 20 -21 2 -8 -18 13 -19 13 -7 -3 11 -14 17 -15 32 -6 10 7 21 21 24
31 3 14 11 18 25 14 13 -3 19 -1 15 5 -4 6 -1 9 6 6 20 -6 24 -28 5 -28 -9 0
-13 -5 -10 -10 3 -6 -1 -10 -10 -10 -10 0 -13 -5 -9 -12 4 -6 3 -8 -3 -5 -6 4
-16 0 -23 -8 -9 -11 -9 -18 3 -30 12 -11 17 -12 20 -2 4 9 6 9 6 0 1 -9 12 -6
36 7 44 25 49 25 42 0 -5 -19 3 -19 619 -20 l624 0 -12 27 c-7 16 -19 38 -26
50 -13 20 -12 23 2 23 10 0 19 -11 22 -30 8 -39 61 -76 55 -37 -3 17 31 5 36
-13 4 -14 14 -20 33 -20 29 0 48 25 25 33 -11 5 -11 13 1 48 15 41 14 43 -10
66 -34 32 -33 69 4 113 17 19 30 44 30 57 0 12 4 24 10 28 6 4 6 15 0 31 -16
40 -12 104 5 110 12 5 14 20 11 76 -5 71 -18 101 -41 92 -11 -4 -12 17 -8 111
4 100 2 121 -13 143 -10 15 -17 39 -15 55 2 22 -1 27 -19 27 -20 0 -22 -4 -17
-30 4 -16 1 -43 -5 -61 -9 -26 -8 -38 7 -65 21 -39 14 -80 -14 -89 -21 -6 -38
-46 -50 -115 -1 -3 -6 2 -11 10 -12 19 -13 70 -1 70 5 0 8 8 7 18 -2 9 5 28
15 41 21 26 25 61 8 61 -8 0 -9 22 -3 72 11 101 9 120 -21 175 -14 26 -25 56
-25 65 0 30 28 20 52 -17 20 -31 61 -55 73 -43 3 2 -4 21 -15 41 -11 20 -18
42 -15 49 9 29 19 126 17 173 -3 60 -16 78 -38 47 -20 -29 -34 -28 -34 2 0 14
-4 27 -9 30 -5 3 -11 24 -13 45 -2 28 0 37 8 31 6 -5 21 -8 33 -5 15 3 29 -3
40 -17 14 -17 21 -19 38 -10 17 9 21 21 21 62 0 37 -4 50 -15 50 -8 0 -11 5
-7 12 4 7 3 8 -5 4 -6 -4 -9 -11 -6 -16 3 -5 1 -11 -5 -15 -6 -4 -7 -12 -3
-18 4 -7 -4 -5 -17 4 -25 16 -38 69 -17 69 6 0 7 23 4 60 -4 37 -3 60 3 60 14
0 12 46 -2 57 -7 6 -30 16 -50 22 -58 19 -50 31 27 43 17 3 20 10 16 53 -2 28
-9 62 -17 76 -9 19 -12 46 -7 91 6 72 -6 108 -38 108 -13 0 -24 -10 -30 -30
-7 -20 -18 -30 -31 -30 -16 0 -19 5 -13 28 8 40 -20 66 -34 31 -5 -14 -5 -34
1 -48 5 -14 7 -30 4 -36 -2 -7 0 -31 5 -55 7 -31 5 -58 -7 -107 -9 -38 -13
-78 -10 -99 9 -48 9 -49 -24 -46 -24 3 -30 -1 -30 -15 0 -11 4 -23 9 -28 5 -6
11 -29 14 -53 5 -39 3 -42 -18 -42 -13 0 -27 -5 -30 -10 -9 -15 -35 8 -35 31
0 11 9 19 23 21 16 2 22 10 22 28 0 21 -4 25 -27 22 -19 -2 -28 2 -33 17 -3
12 -11 21 -16 21 -12 0 -49 37 -49 50 0 6 11 10 25 10 14 0 25 -4 25 -10 0 -5
4 -10 9 -10 13 0 20 89 9 121 -13 37 -75 47 -100 15 -23 -28 -35 -14 -48 53
-5 30 -19 68 -30 86 -11 18 -20 43 -20 57 0 33 -24 63 -49 63 -12 0 -21 2 -21
5 -1 3 -5 22 -9 43 -5 20 -5 39 -1 42 5 3 6 22 3 43 -3 20 -5 44 -6 52 0 23
-19 30 -41 14 -31 -21 -38 -17 -31 19 5 24 1 38 -14 56 -11 13 -23 40 -26 60
-4 20 -12 64 -20 99 -7 34 -10 64 -6 66 8 6 6 209 -4 267 -4 24 -11 52 -16 61
-5 9 -14 52 -20 95 -13 99 -17 113 -34 113 -27 0 -30 -35 -20 -244 4 -104 3
-146 -4 -141 -6 3 -11 19 -11 34 0 16 -8 46 -17 67 -9 22 -18 53 -20 69 -2 17
-11 48 -19 70 -11 31 -14 79 -12 220 2 99 8 181 13 183 12 4 24 -29 17 -46 -2
-7 4 -19 14 -27 13 -9 20 -30 24 -72 5 -58 5 -58 40 -61 19 -2 39 -9 43 -15 5
-7 5 -1 1 13 -4 14 -9 71 -10 127 -2 81 -7 110 -25 144 -12 24 -23 64 -24 89
-1 25 -3 50 -4 56 0 7 -28 39 -60 72 -42 42 -63 72 -71 103 -7 24 -19 58 -26
76 -8 17 -14 35 -14 40 0 5 -11 16 -25 23 -14 7 -25 20 -25 29 0 9 -16 41 -35
71 -24 37 -35 66 -35 92 0 31 -4 38 -19 38 -10 0 -22 7 -25 16 -8 22 -8 23 12
17 14 -3 21 4 30 35 14 48 16 127 2 151 -13 25 -20 94 -23 233 -2 65 -8 122
-14 130 -8 9 -8 22 1 48 7 21 9 51 4 75 -11 62 -9 120 4 133 9 9 9 12 0 12
-15 0 -16 56 -1 66 7 4 8 20 4 41 -7 41 12 42 32 3 l12 -24 12 27 c9 21 10 33
1 52 -25 54 -2 213 35 245 10 9 17 25 15 38 -4 28 16 82 30 82 5 0 6 -9 3 -21
-4 -12 -8 -31 -10 -42 -1 -12 -6 -36 -9 -54 -5 -27 -2 -34 16 -44 13 -6 20 -8
16 -4 -4 4 -3 16 2 25 15 28 16 281 2 307 -15 27 -15 28 3 47 8 8 12 22 9 31
-11 28 -28 10 -36 -36 -15 -94 -48 -169 -73 -169 -17 0 -22 43 -12 100 19 109
38 420 41 671 1 94 5 130 16 143 11 14 15 15 20 4 4 -10 11 -8 28 9 l24 21
-21 21 c-12 12 -21 25 -21 30 0 6 -12 9 -27 8 -28 -2 -28 -2 -34 78 -4 44 -13
102 -22 128 -15 48 -15 48 9 59 13 6 24 15 24 19 0 4 -26 31 -58 59 -66 61
-74 73 -78 114 -4 46 -21 83 -44 96 -13 7 -20 7 -20 0 0 -5 -5 -10 -11 -10 -5
0 -8 4 -5 9 4 5 0 12 -6 15 -7 3 -4 4 7 3 26 -3 33 33 9 50 -16 12 -17 15 -4
23 8 5 19 6 25 3 5 -3 4 0 -3 8 -6 7 -12 25 -12 39 0 15 -10 36 -23 48 -27 25
-26 74 1 105 22 25 2 67 -33 67 -20 0 -25 5 -25 25 0 28 21 33 40 10 7 -8 18
-15 25 -15 17 0 26 39 14 61 -5 10 -9 25 -9 35 0 22 37 54 63 54 17 0 19 -6
15 -55 -5 -64 9 -72 44 -25 l22 30 38 -37 c33 -33 37 -41 32 -70 -7 -35 7 -65
54 -115 29 -32 52 -23 52 21 0 14 9 45 20 69 l19 42 -29 22 c-23 17 -27 25
-19 40 6 11 21 18 39 18 19 0 30 5 30 14 0 10 -11 14 -36 12 -32 -1 -39 3 -54
32 -10 19 -26 42 -35 52 -33 36 6 74 51 49 21 -11 27 -10 41 4 11 11 13 17 5
17 -19 0 -14 25 9 46 20 18 21 18 35 -1 42 -59 72 -75 60 -32 -25 81 -10 139
30 123 18 -8 18 -9 -3 -17 -15 -5 -21 -14 -17 -24 8 -19 13 -19 34 0 15 13 19
12 40 -10 25 -27 35 -55 19 -55 -5 0 -9 -4 -9 -9 0 -5 9 -7 20 -4 14 4 22 -1
29 -20 5 -13 21 -27 34 -31 14 -3 32 -9 41 -12 12 -4 16 0 16 15 0 12 -4 21
-10 21 -5 0 -14 17 -19 38 -16 57 -66 130 -96 138 -57 14 -9 47 50 34 37 -8
65 -3 38 7 -17 6 -17 50 -1 55 7 3 24 -1 38 -9 14 -7 34 -13 46 -13 11 0 29
-9 39 -20 9 -10 36 -29 59 -40 22 -12 76 -58 119 -102 69 -72 83 -93 78 -121
-4 -22 22 -89 45 -117 41 -48 86 -35 49 14 -19 26 -19 61 1 80 14 14 18 14 37
1 12 -8 29 -15 39 -15 10 0 23 -9 30 -21 7 -11 37 -36 66 -56 49 -32 56 -34
78 -22 29 15 43 5 46 -34 2 -18 11 -30 30 -38 16 -6 38 -23 51 -38 33 -39 88
-68 146 -76 66 -9 111 -39 138 -94 12 -24 36 -52 52 -62 16 -10 35 -27 41 -38
10 -20 10 -20 -20 -3 -26 15 -32 15 -40 2 -6 -10 -3 -18 11 -28 25 -17 79
-130 79 -165 0 -14 5 -29 10 -32 13 -8 13 79 1 122 -13 45 2 50 49 19 22 -14
53 -26 69 -26 39 0 64 -25 57 -59 -3 -14 -3 -31 2 -37 13 -19 50 -34 85 -34
19 0 40 -7 47 -15 7 -8 20 -15 29 -15 9 0 54 -18 101 -40 62 -29 84 -44 82
-56 -3 -13 2 -15 20 -11 17 5 40 -4 78 -26 52 -31 55 -36 60 -79 4 -35 12 -52
33 -68 29 -23 33 -45 15 -85 -10 -22 -9 -28 3 -36 36 -23 42 -12 34 63 -3 40
-13 84 -20 99 -8 14 -11 29 -8 33 15 15 54 4 77 -21 14 -15 28 -24 32 -20 4 3
16 1 28 -5 11 -6 57 -12 102 -12 72 -1 83 -4 112 -28 17 -14 37 -28 44 -30 10
-4 10 -10 0 -32 -13 -29 -7 -72 13 -96 20 -23 21 -42 6 -77 -12 -30 -11 -34
21 -72 56 -69 97 -43 83 53 -4 28 -8 78 -9 111 l-1 60 58 1 c35 0 64 -4 71
-12 16 -15 83 -44 103 -44 8 0 34 -13 58 -30 48 -33 57 -35 83 -19 14 9 29 7
66 -10 27 -11 59 -21 73 -21 13 0 35 -11 49 -25 14 -14 30 -25 36 -25 6 0 8
-9 5 -20 -6 -24 -3 -25 15 -6 18 18 56 3 67 -26 5 -13 12 -47 16 -75 6 -45 3
-58 -16 -90 -31 -52 -61 -81 -105 -104 -45 -23 -53 -17 -65 47 -7 36 -5 54 6
77 8 17 15 34 15 39 0 6 9 23 21 39 11 16 17 33 14 39 -13 20 -33 9 -49 -27
-9 -21 -25 -54 -36 -73 -23 -39 -25 -76 -9 -150 10 -48 9 -53 -15 -85 -33 -42
-33 -55 -1 -55 26 0 35 -24 12 -33 -12 -4 -20 -33 -42 -145 -4 -19 -17 -40
-32 -49 -24 -16 -26 -16 -43 5 -20 25 -40 28 -58 10 -16 -16 -15 -43 3 -58 8
-7 17 -27 21 -45 5 -26 0 -42 -20 -71 -14 -21 -26 -45 -26 -52 0 -7 -7 -26
-15 -43 -9 -16 -20 -55 -26 -87 -6 -31 -19 -70 -28 -87 -14 -24 -16 -39 -9
-75 5 -25 11 -82 13 -128 2 -55 8 -89 19 -105 9 -12 23 -31 31 -42 14 -20 34
-136 38 -225 2 -37 6 -45 22 -46 11 -1 25 -2 32 -3 14 -1 33 -54 33 -92 0 -15
4 -29 10 -31 14 -4 50 -111 50 -147 0 -16 -4 -33 -10 -36 -18 -11 -10 -53 16
-84 25 -30 54 -114 54 -158 0 -13 9 -28 20 -35 11 -7 20 -17 20 -22 0 -5 7
-17 15 -26 15 -16 22 -44 44 -170 l8 -45 2 53 c1 45 4 52 21 52 11 0 23 -7 27
-16 3 -10 19 -29 34 -43 20 -19 25 -31 19 -41 -17 -26 -11 -56 15 -80 14 -13
25 -31 25 -41 0 -25 11 -49 22 -49 5 0 14 14 19 30 6 17 15 30 20 30 14 0 55
-88 79 -170 13 -41 31 -84 41 -96 11 -11 19 -32 19 -47 0 -20 5 -27 19 -27 24
0 35 -42 26 -103 -9 -58 6 -84 54 -97 34 -9 38 -13 33 -36 -4 -22 -9 -25 -33
-22 -29 5 -29 4 -29 -49 0 -30 -5 -64 -12 -76 -11 -21 -20 -53 -37 -127 -5
-19 -11 -42 -15 -50 -3 -8 -2 -21 3 -29 8 -12 13 -12 34 2 27 17 64 115 54
142 -4 8 -3 15 2 15 15 0 44 78 37 104 -3 14 -2 27 3 30 13 8 31 -17 32 -45 0
-13 1 -42 1 -64 2 -50 -6 -128 -23 -224 -9 -55 -10 -76 -1 -79 6 -2 8 -11 5
-20 -4 -10 2 -6 14 8 16 19 31 25 64 26 24 1 51 3 59 5 22 6 23 -33 0 -60 -16
-18 -26 -22 -48 -16 -51 13 -115 18 -109 8 6 -10 -53 -43 -76 -43 -7 0 -29 -9
-50 -20 -44 -24 -66 -25 -73 -5 -4 8 -10 12 -15 9 -14 -8 -11 -26 4 -18 6 4 4
-2 -5 -13 -10 -11 -18 -27 -18 -36 0 -23 50 -67 76 -67 26 0 71 34 79 60 4 14
15 20 34 20 31 0 51 16 51 42 0 30 26 20 54 -21 15 -21 38 -43 52 -49 27 -13
53 -64 35 -70 -14 -5 -14 -35 1 -67 10 -22 8 -29 -11 -49 -13 -14 -21 -30 -19
-37 5 -15 67 -20 91 -7 14 7 24 5 37 -7 25 -23 39 -12 46 36 5 32 13 43 33 51
54 20 76 34 76 46 0 7 10 23 22 36 12 13 27 35 32 50 6 14 17 26 24 26 8 0 22
9 32 20 40 45 76 30 111 -45 7 -16 19 -39 26 -50 7 -11 22 -36 34 -55 12 -19
24 -50 28 -68 8 -48 71 -177 105 -219 17 -21 31 -42 31 -48 1 -5 9 -28 20 -50
11 -22 19 -48 20 -57 0 -22 186 -393 256 -513 65 -110 82 -157 95 -260 7 -52
20 -96 36 -125 56 -98 163 -315 163 -330 0 -8 6 -35 14 -60 8 -25 25 -76 37
-115 12 -38 34 -95 49 -125 28 -56 120 -350 120 -384 0 -10 5 -36 12 -57 l11
-39 339 0 338 0 0 3646 0 3646 -65 -4 c-49 -3 -70 -9 -88 -26 -33 -31 -54 -28
-111 21 -46 38 -56 42 -111 44 -33 1 -132 5 -220 9 -179 8 -308 -5 -377 -36
-24 -11 -55 -20 -69 -20 -15 0 -32 -7 -39 -15 -7 -8 -21 -15 -31 -15 -18 0
-19 10 -19 171 0 143 -3 173 -16 186 -11 11 -14 27 -11 48 3 17 2 36 -1 42 -8
12 -52 28 -69 25 -8 -2 -10 4 -7 15 5 14 4 15 -4 4 -8 -12 -13 -12 -28 0 -20
14 -23 23 -26 64 -1 14 -5 25 -8 25 -4 0 -5 14 -2 30 3 23 0 30 -13 30 -9 0
-19 -9 -22 -20 -3 -11 -14 -20 -24 -20 -18 0 -23 10 -20 38 1 6 -3 12 -9 12
-5 0 -10 9 -10 19 0 28 -17 36 -85 36 -51 0 -60 3 -64 20 -2 15 0 17 11 10 8
-6 5 -2 -5 7 -11 10 -16 18 -12 18 5 0 0 9 -11 21 -12 14 -17 32 -15 56 1 19
-3 48 -9 64 -10 22 -10 40 -1 75 7 25 9 55 5 67 -6 19 -7 19 -16 3 -6 -10 -12
-32 -15 -49 -6 -36 -32 -91 -40 -84 -3 3 -6 59 -8 125 -4 117 -19 202 -37 202
-5 0 -6 -6 -2 -12 5 -8 1 -7 -10 1 -17 15 -18 30 -4 140 2 21 -5 30 -29 33
-14 2 -29 9 -31 17 -3 8 0 11 6 7 27 -17 21 47 -11 109 -40 77 -90 189 -97
218 -5 18 -13 46 -19 62 -6 17 -18 66 -27 110 -10 44 -25 96 -34 115 -10 19
-21 51 -24 70 -4 19 -22 89 -41 155 -18 66 -38 147 -43 180 -16 91 -23 118
-42 145 -20 30 -50 123 -50 156 0 13 -4 24 -8 24 -10 0 14 185 30 243 6 20 8
40 5 43 -7 7 -8 5 -26 -63 -9 -32 -17 -43 -31 -43 -17 0 -20 7 -20 49 0 27 -4
61 -10 75 -13 36 4 219 24 248 18 25 22 88 6 88 -5 0 -10 14 -10 30 0 32 16
41 22 13 2 -10 12 -18 23 -18 19 0 20 -6 16 -102 -2 -71 0 -103 8 -103 6 0 10
-3 10 -7 -1 -5 -1 -26 0 -48 2 -36 3 -38 12 -16 5 13 7 32 4 41 -3 9 1 32 8
51 16 41 14 237 -3 314 -30 135 -32 150 -21 185 15 51 -17 499 -39 540 -16 31
-8 249 15 360 3 16 -2 32 -17 47 -16 17 -19 30 -14 53 3 20 0 42 -9 60 -8 16
-15 40 -15 54 0 14 -5 28 -10 31 -6 4 -10 30 -9 58 2 68 -10 112 -75 265 -30
70 -62 165 -71 212 -25 124 -65 252 -85 275 -19 23 -57 100 -125 260 -26 61
-55 129 -66 153 -10 23 -19 58 -19 76 0 18 -9 44 -19 58 -11 13 -34 57 -51 98
-18 41 -51 113 -75 160 -24 47 -50 108 -58 135 -16 55 -103 241 -116 250 -5 2
-23 40 -40 84 -28 68 -80 162 -109 196 -5 6 -17 24 -27 40 -23 37 -142 173
-171 197 -12 10 -27 31 -34 48 -7 17 -27 38 -44 47 -41 21 -151 110 -226 181
-117 113 -151 142 -161 142 -6 0 -23 6 -37 14 -45 25 -135 63 -177 76 -22 7
-63 21 -90 31 -40 15 -74 19 -160 18 -61 -1 -117 -5 -125 -10 -9 -4 -43 0 -78
10 -61 16 -91 34 -108 63 -23 39 -117 89 -246 133 -143 47 -151 49 -161 38z
m-1574 -680 c-4 -10 -9 -11 -16 -4 -5 5 -7 18 -3 28 6 14 9 15 16 4 4 -8 6
-21 3 -28z m-38 -103 c3 -5 1 -10 -4 -10 -6 0 -11 5 -11 10 0 6 2 10 4 10 3 0
8 -4 11 -10z m1539 -287 c33 -11 55 -13 65 -6 9 5 36 10 61 12 25 2 49 5 53 8
5 3 17 -3 27 -12 12 -11 20 -13 25 -6 9 16 45 13 51 -3 6 -15 39 -27 89 -31
16 -2 31 -8 33 -14 2 -6 9 -11 15 -11 7 0 36 -16 66 -36 36 -25 61 -34 77 -31
14 2 27 0 30 -5 3 -5 16 -8 27 -7 12 1 39 -5 61 -14 21 -9 45 -17 52 -17 8 0
14 -10 14 -25 0 -14 5 -25 11 -25 6 0 8 -7 5 -16 -5 -14 -1 -15 27 -10 18 3
37 3 41 -1 11 -12 37 -12 30 -1 -5 7 -2 8 7 2 8 -5 22 -7 32 -6 9 2 20 -3 23
-12 3 -8 14 -13 25 -11 10 2 19 0 19 -6 0 -5 7 -9 15 -9 24 0 66 -31 75 -56 6
-15 24 -27 51 -35 22 -7 43 -19 46 -26 3 -7 22 -17 43 -23 34 -9 39 -15 57
-68 11 -31 23 -65 27 -74 6 -13 4 -18 -8 -18 -24 0 -15 -22 17 -42 15 -10 27
-25 27 -33 0 -8 5 -15 10 -15 6 0 10 -8 9 -17 0 -11 -3 -13 -6 -6 -3 10 -8 10
-19 -1 -19 -19 -18 -26 4 -26 11 0 24 -11 30 -25 15 -32 15 -55 2 -55 -5 0
-10 -9 -10 -21 0 -11 -4 -17 -10 -14 -5 3 -10 -3 -10 -15 0 -16 5 -20 25 -16
15 3 23 1 19 -5 -6 -11 13 -39 26 -39 5 0 10 8 13 18 3 13 6 11 15 -10 6 -16
16 -28 22 -28 6 0 9 -4 6 -8 -7 -12 31 -92 44 -92 6 0 9 -4 5 -9 -3 -5 -1 -12
4 -15 5 -3 12 -21 15 -40 4 -19 12 -36 19 -39 9 -3 9 -7 -1 -19 -9 -11 -10
-18 -2 -23 6 -3 8 -11 5 -16 -4 -5 1 -12 9 -15 9 -3 16 -11 16 -18 1 -17 60
-80 115 -121 53 -40 65 -53 65 -72 0 -23 -43 -13 -94 22 -28 19 -64 36 -79 39
-16 3 -34 9 -40 14 -7 6 -61 15 -122 22 -60 7 -121 16 -135 20 -37 11 -134 2
-167 -15 -15 -8 -42 -15 -60 -15 -17 0 -35 -5 -39 -12 -4 -7 -3 -8 4 -4 7 4
12 5 12 2 0 -4 -59 -36 -67 -36 -2 0 -1 5 3 12 4 7 3 8 -5 4 -6 -4 -9 -11 -6
-16 3 -5 1 -11 -5 -15 -6 -4 -8 -11 -5 -16 4 -5 -3 -9 -14 -9 -16 0 -21 -6
-21 -25 0 -14 -2 -25 -4 -25 -2 0 -11 -3 -20 -6 -10 -4 -16 -1 -16 7 0 19 -31
49 -51 49 -20 0 -29 -22 -24 -65 4 -42 4 -42 15 -25 5 8 10 11 11 5 0 -5 2
-20 3 -32 2 -15 -3 -23 -12 -23 -8 0 -12 6 -9 14 7 17 -26 49 -38 39 -4 -5 -5
-2 -1 5 11 19 -9 14 -29 -8 -10 -11 -28 -19 -39 -18 -15 2 -21 -2 -20 -14 1
-10 -6 -19 -15 -20 -9 0 -22 -2 -30 -2 -18 -1 -23 -32 -8 -45 19 -15 52 -17
49 -3 -1 6 4 12 11 12 8 0 14 6 14 13 0 7 10 27 23 45 23 31 40 34 40 6 0 -8
5 -14 11 -14 5 0 7 -4 4 -10 -3 -5 -2 -10 3 -10 5 0 9 -7 9 -15 0 -13 -2 -13
-17 0 -21 19 -40 19 -40 0 0 -9 -6 -18 -13 -21 -15 -5 -19 -34 -5 -34 5 0 7
-4 4 -9 -3 -5 1 -11 9 -15 8 -3 12 -12 9 -21 -4 -9 1 -17 10 -21 14 -5 14 -9
4 -22 -16 -19 -18 -72 -3 -72 7 0 20 -26 29 -57 74 -245 141 -400 203 -468 25
-27 80 -65 94 -65 6 0 24 -9 40 -21 16 -11 29 -18 29 -16 0 3 21 -1 48 -9 102
-32 369 -24 427 12 11 6 38 17 60 24 22 6 54 19 71 27 18 9 41 13 55 10 29 -7
109 -67 109 -81 0 -6 11 -26 24 -45 14 -20 27 -47 30 -61 2 -14 8 -43 14 -65
18 -78 4 -257 -33 -420 -4 -16 -9 -43 -12 -60 -3 -16 -11 -37 -18 -45 -8 -8
-15 -31 -18 -50 -3 -31 -7 -35 -31 -32 -16 2 -28 -3 -32 -13 -3 -8 -10 -15
-16 -15 -5 0 -6 5 -3 10 3 6 1 10 -4 10 -6 0 -11 7 -11 15 0 9 -7 18 -15 21
-8 4 -12 10 -9 15 3 5 -10 9 -28 9 -24 0 -29 3 -19 9 12 8 9 11 -11 16 -28 7
-44 30 -28 40 13 8 13 25 -1 25 -5 0 -7 -6 -4 -12 4 -7 -1 -4 -9 7 -9 11 -23
27 -30 37 -8 9 -12 19 -9 22 4 3 0 6 -7 6 -7 0 -19 8 -27 18 -10 12 -16 14
-19 5 -3 -7 -12 -13 -20 -13 -11 0 -12 4 -5 19 9 16 6 18 -27 17 -20 -1 -46
-9 -56 -18 -18 -16 -22 -16 -40 -3 -12 8 -31 19 -42 24 -17 8 -22 18 -22 53 0
52 -9 78 -28 78 -8 0 -14 10 -14 24 0 14 -11 37 -24 51 -13 14 -29 39 -36 55
-7 17 -18 30 -24 30 -6 0 -17 9 -24 20 -7 11 -21 20 -31 20 -10 0 -29 9 -43
19 l-24 19 -2 -34 c-3 -42 15 -79 63 -124 57 -55 77 -94 77 -151 0 -60 -13
-80 -39 -56 -10 8 -22 16 -28 17 -30 2 -78 21 -105 40 -22 15 -38 20 -57 15
-20 -5 -31 0 -52 23 -14 16 -38 37 -54 47 -25 16 -29 16 -45 3 -9 -9 -27 -19
-39 -22 -13 -4 -23 -14 -23 -22 0 -8 -4 -14 -10 -14 -5 0 -10 -10 -10 -22 0
-48 -54 -73 -103 -46 -38 21 -188 28 -322 16 -69 -7 -86 -13 -134 -45 -45 -32
-62 -38 -100 -36 -30 1 -50 8 -58 19 -19 26 -16 123 7 195 10 35 18 68 17 74
-8 36 -119 -11 -142 -59 -9 -19 -26 -37 -39 -40 -12 -3 -28 -17 -36 -30 -7
-14 -19 -27 -27 -30 -9 -4 -11 -2 -6 6 4 7 -6 3 -21 -10 -16 -12 -34 -22 -40
-22 -6 0 -19 -9 -29 -20 -9 -11 -14 -20 -10 -20 3 0 -4 -11 -17 -25 -13 -14
-20 -25 -16 -25 5 0 3 -7 -4 -15 -7 -9 -19 -14 -27 -11 -7 3 -34 -15 -59 -39
-25 -25 -38 -42 -27 -39 16 6 16 5 -2 -9 -11 -9 -30 -17 -43 -17 -12 0 -25 -7
-28 -15 -8 -20 -94 -72 -144 -85 -33 -9 -47 -8 -73 5 -35 17 -82 12 -91 -10
-5 -14 -35 -13 -58 1 -7 4 -8 3 -4 -5 5 -7 -3 -13 -21 -17 -22 -4 -29 -12 -31
-31 -1 -14 3 -32 8 -39 8 -9 7 -14 -1 -20 -7 -4 -9 -3 -6 3 4 6 -15 25 -41 43
-26 18 -55 43 -64 54 l-17 21 -16 -22 c-9 -13 -20 -23 -24 -23 -4 0 -21 20
-39 45 l-32 45 31 -15 c17 -9 38 -14 46 -11 12 5 9 11 -13 28 -16 13 -34 27
-40 33 -34 30 -54 44 -72 49 -12 4 -23 19 -27 36 -4 16 -12 28 -18 27 -6 -1
-12 3 -12 8 -1 6 -6 21 -12 35 -16 38 -35 128 -29 138 3 5 -2 22 -11 38 -21
39 -33 93 -22 100 5 3 5 12 -1 22 -18 33 -42 148 -41 196 0 28 -5 56 -11 64
-12 14 -19 119 -9 137 3 5 6 37 8 72 1 34 9 86 17 115 8 29 18 94 21 143 6 94
22 165 39 177 7 5 7 16 0 35 -6 17 -7 40 -2 58 4 17 10 42 13 58 3 15 16 51
29 80 12 29 23 67 24 86 2 62 33 138 83 199 27 34 49 63 49 67 0 15 83 139
104 156 14 11 28 34 31 52 4 17 16 50 26 72 10 22 20 52 23 68 3 15 12 42 21
59 12 25 13 33 3 40 -13 9 -40 6 -70 -7 -15 -6 -18 -2 -18 23 0 26 8 36 53 65
70 46 106 65 139 71 20 5 30 14 34 34 7 27 44 82 44 66 1 -5 9 2 20 15 11 12
18 27 15 31 -5 9 82 90 96 90 5 0 6 -7 3 -15 -4 -8 -1 -15 5 -15 17 0 13 28
-6 39 -16 9 -17 10 -1 11 9 0 20 9 23 20 4 11 17 27 30 36 13 8 28 27 34 43 7
15 25 35 42 45 25 15 30 23 28 50 -4 42 26 90 51 83 11 -3 27 1 36 8 10 7 26
10 37 7 12 -3 26 4 40 21 14 15 44 31 79 41 31 9 60 21 63 26 7 11 33 7 109
-17z m-1227 -573 c21 -11 32 -20 25 -20 -8 0 -10 -8 -6 -25 6 -23 4 -24 -24
-15 -17 4 -33 6 -36 2 -3 -3 -6 2 -6 10 0 9 -7 21 -15 28 -20 16 -19 27 3 33
9 3 18 5 20 6 1 0 19 -8 39 -19z m290 -85 c-26 -24 -57 -33 -57 -18 0 17 36
43 59 43 l26 -1 -28 -24z m-2012 -442 c-17 -69 -46 -98 -53 -54 -3 21 35 81
51 81 5 0 6 -12 2 -27z m3692 -529 c-3 -3 -12 -4 -19 -1 -8 3 -5 6 6 6 11 1
17 -2 13 -5z m1037 -92 c0 -13 7 -24 18 -28 20 -6 21 -8 12 -53 -4 -17 -11
-31 -16 -31 -5 0 -6 5 -3 10 4 6 -6 10 -24 10 -16 0 -33 5 -36 10 -3 6 -13 10
-21 10 -18 0 -49 31 -49 49 0 8 14 15 35 17 19 2 40 11 45 19 14 22 40 13 39
-13z m-273 -302 c39 -22 15 -100 -32 -100 -15 0 -19 7 -19 35 0 30 17 75 28
75 2 0 12 -5 23 -10z m199 -230 c12 -7 10 -11 -10 -18 -33 -12 -55 -5 -39 14
13 16 28 17 49 4z m-5000 -89 c0 -23 -18 -73 -29 -81 -14 -10 -99 -166 -125
-229 -14 -34 -37 -77 -51 -94 -69 -85 -100 -125 -122 -159 -26 -42 -49 -51
-39 -15 4 12 13 46 21 76 16 59 156 318 215 396 40 54 110 125 122 125 4 0 8
-9 8 -19z m3420 -807 c28 -26 50 -53 50 -61 0 -7 15 -28 33 -46 17 -17 31 -34
30 -38 -1 -4 14 -20 35 -35 20 -16 43 -34 50 -41 8 -8 30 -20 50 -29 49 -20
54 -33 30 -67 -32 -45 -40 -46 -333 -63 -133 -8 -146 -1 -118 63 13 28 17 61
16 119 -3 142 -2 157 13 186 8 16 22 32 29 35 8 3 12 9 9 14 -3 5 9 9 26 9 23
0 44 -12 80 -46z m-876 -106 c-5 -8 9 -12 34 -9 6 1 12 -3 12 -9 0 -5 5 -10
11 -10 5 0 7 5 3 12 -5 7 -3 8 5 4 9 -6 8 -13 -6 -26 -15 -15 -20 -16 -29 -4
-6 7 -15 10 -19 6 -5 -4 -5 -1 -1 6 6 11 -11 17 -36 13 -9 -1 -11 13 -3 21 8
8 34 5 29 -4z m2607 -5 c7 -10 9 -15 5 -11 -5 4 -14 4 -20 -2 -8 -6 -12 -3
-12 11 0 24 9 24 27 2z m-5551 -37 c0 -3 -4 -8 -10 -11 -5 -3 -10 -1 -10 4 0
6 5 11 10 11 6 0 10 -2 10 -4z m54 -99 c6 -32 2 -45 -23 -84 -24 -37 -30 -56
-29 -95 1 -59 -14 -81 -32 -47 -23 42 -7 156 30 227 35 67 42 66 54 -1z m2666
41 c0 -4 -4 -8 -9 -8 -6 0 -12 4 -15 8 -3 5 1 9 9 9 8 0 15 -4 15 -9z m1944
-74 l29 -36 -39 7 c-47 9 -67 25 -58 48 10 26 36 19 68 -19z m-4614 -110 c0
-8 -5 -12 -10 -9 -6 4 -8 11 -5 16 9 14 15 11 15 -7z m3637 -118 l27 -24 28
21 c26 19 33 20 74 9 35 -10 54 -10 85 -1 30 9 55 9 107 0 37 -7 75 -9 84 -6
23 9 190 -24 210 -42 13 -12 21 -12 38 -3 12 6 54 14 94 17 58 5 74 3 85 -11
17 -20 39 -20 62 0 20 18 54 11 63 -12 3 -9 9 -37 12 -62 7 -58 -19 -92 -69
-92 -18 0 -41 -6 -52 -14 -26 -17 -161 -37 -189 -27 -11 4 -31 5 -44 2 -12 -3
-58 -5 -101 -3 -72 3 -82 6 -118 36 -36 31 -41 32 -103 28 -60 -4 -69 -2 -98
22 -25 22 -38 26 -64 21 -38 -7 -59 9 -75 60 -9 28 -13 30 -59 30 -43 0 -50 3
-62 28 -24 50 16 65 65 23z m1020 -98 c-3 -8 -6 -5 -6 6 -1 11 2 17 5 13 3 -3
4 -12 1 -19z m-861 -93 c27 -8 62 -15 77 -15 16 0 47 -13 70 -28 23 -16 64
-36 91 -45 62 -21 138 -65 131 -77 -3 -4 -18 -3 -35 3 -23 9 -32 8 -47 -5 -22
-19 -135 -32 -150 -17 -6 6 -32 13 -57 15 -94 7 -182 47 -217 98 -13 19 -32
37 -42 40 -29 7 -14 30 24 37 60 11 105 9 155 -6z m810 -90 c30 -12 35 -19 32
-41 -2 -15 -10 -30 -18 -34 -69 -34 -66 -34 -104 -4 -20 16 -36 32 -36 35 0 4
9 18 21 33 23 30 53 33 105 11z m-4608 -110 c45 -64 43 -115 -3 -65 -10 11
-26 20 -35 20 -14 0 -20 14 -29 61 -12 71 -6 91 18 56 9 -14 31 -46 49 -72z
m12 -308 c-1 -39 -2 -41 -15 -23 -23 30 -18 85 6 70 5 -3 9 -24 9 -47z m3547
38 c13 -9 32 -14 41 -10 10 3 27 -2 38 -10 10 -8 27 -15 37 -15 9 0 23 -11 29
-25 6 -14 19 -25 27 -23 9 1 37 -10 62 -25 25 -15 50 -27 55 -27 17 -1 93 -57
119 -89 15 -17 33 -31 40 -31 8 0 15 -10 17 -22 3 -24 49 -53 58 -38 3 5 12 5
20 0 13 -9 13 -10 0 -10 -13 -1 -13 -2 0 -13 14 -11 18 -21 25 -57 1 -8 7 -14
12 -13 4 1 20 -7 33 -17 34 -25 16 -47 -24 -29 -23 11 -28 10 -40 -6 -7 -10
-18 -15 -24 -11 -6 3 -13 2 -17 -4 -3 -5 -13 -10 -21 -10 -8 0 -13 4 -10 8 3
5 -1 9 -9 9 -8 0 -15 -5 -15 -11 0 -7 -16 -12 -37 -11 -24 0 -37 4 -36 12 2 7
-4 10 -12 7 -8 -4 -13 -10 -10 -14 3 -5 -1 -11 -7 -13 -10 -4 -9 -8 2 -16 8
-6 11 -11 5 -11 -5 -1 0 -5 12 -10 15 -6 21 -15 17 -25 -9 -22 -41 -19 -54 5
-8 16 -15 18 -29 10 -10 -5 -22 -6 -26 -2 -5 4 -5 1 -1 -5 4 -7 2 -13 -3 -13
-6 0 -11 5 -11 10 0 6 -4 10 -10 10 -5 0 -10 -8 -10 -18 0 -15 -8 -19 -32 -20
-32 0 -33 0 -12 16 l20 16 -24 28 c-14 15 -31 28 -38 28 -7 0 -14 7 -16 16 -3
14 -7 13 -30 -5 -42 -34 -71 -27 -125 29 -26 27 -48 53 -49 57 -1 15 -39 73
-47 73 -5 0 -5 5 -2 10 3 6 1 10 -5 10 -17 0 -70 42 -64 52 3 4 -2 8 -10 8 -8
0 -18 5 -22 12 -5 7 -3 8 7 3 12 -8 12 -6 0 9 -15 18 -24 106 -11 106 4 0 26
17 48 38 22 20 53 45 68 54 16 10 28 21 27 26 -3 15 50 12 74 -3z m938 -293
c-3 -3 -11 0 -18 7 -9 10 -8 11 6 5 10 -3 15 -9 12 -12z m-620 -271 c-3 -6
-11 -8 -17 -5 -6 4 -5 9 3 15 16 10 23 4 14 -10z m-4324 -1061 c10 -6 19 -18
19 -28 0 -9 7 -37 16 -62 11 -32 15 -80 15 -164 -1 -65 -4 -122 -6 -127 -3 -4
-7 -120 -8 -256 -2 -226 0 -251 16 -277 14 -21 16 -30 7 -41 -8 -10 -10 -34
-5 -75 l7 -61 -88 -85 c-49 -46 -89 -90 -89 -97 0 -24 -26 -57 -56 -72 -16 -9
-34 -27 -39 -40 -5 -14 -56 -87 -114 -162 -157 -208 -204 -310 -272 -593 -9
-36 -18 -72 -21 -80 -3 -8 -7 -42 -9 -75 -2 -33 -8 -93 -14 -133 -9 -67 -8
-76 10 -99 11 -14 20 -40 20 -57 0 -17 7 -60 16 -96 9 -36 17 -113 17 -172 1
-74 6 -108 13 -108 22 0 23 -63 2 -92 -22 -32 -17 -49 12 -43 26 5 42 -26 46
-85 2 -47 7 -65 29 -115 12 -27 12 -32 -6 -51 -22 -24 -24 -40 -5 -47 7 -3 21
-40 31 -84 9 -43 22 -88 27 -100 14 -30 2 -91 -21 -98 -9 -3 -30 -18 -45 -34
-21 -22 -33 -27 -45 -21 -9 5 -24 11 -34 14 -15 5 -16 9 -5 28 7 13 11 26 10
31 -1 4 3 7 8 7 6 0 10 7 10 15 0 8 5 15 10 15 6 0 10 7 10 15 0 8 -9 15 -20
15 -11 0 -20 5 -20 11 0 5 -4 8 -9 4 -6 -3 -8 13 -5 40 3 28 0 45 -7 45 -6 0
-8 8 -4 19 6 19 -12 33 -45 35 -8 1 -19 16 -25 34 -8 28 -21 37 -47 33 -6 0
-5 12 7 59 2 8 4 15 5 15 1 0 3 12 4 27 1 14 -1 26 -4 26 -20 -2 -29 4 -24 17
4 8 1 15 -4 15 -6 0 -14 16 -18 35 -3 19 -11 35 -16 35 -5 0 -8 10 -6 23 2 12
8 21 14 20 10 -2 11 13 5 50 0 5 -5 5 -11 2 -5 -3 -10 1 -10 9 0 24 -2 30 -17
44 -7 7 -13 26 -13 41 0 15 -3 31 -7 35 -11 11 -12 37 -2 30 6 -3 7 5 3 23 -4
15 -7 36 -6 46 0 10 -6 21 -14 24 -8 3 -15 17 -15 32 -1 45 0 114 4 154 2 20
0 37 -4 37 -5 0 -6 19 -3 43 11 93 12 133 3 149 -5 10 -9 39 -9 65 2 165 9
291 17 313 6 14 9 34 7 45 -6 41 -7 60 -1 75 18 49 32 160 19 160 -9 0 -6 100
4 124 6 15 4 17 -7 11 -11 -7 -12 -6 -2 7 7 8 10 17 7 21 -9 9 -13 77 -4 77 4
0 10 16 12 35 3 22 1 32 -6 25 -13 -13 -36 35 -29 63 6 25 6 21 -2 132 -3 44
-8 121 -12 172 -4 69 -2 110 11 165 25 105 65 233 97 309 24 59 89 165 108
179 4 3 22 27 41 54 93 138 273 267 460 330 84 28 103 31 131 16z m2909 -220
c0 -5 -4 -10 -9 -10 -6 0 -13 5 -16 10 -3 6 1 10 9 10 9 0 16 -4 16 -10z
m-240 -44 c0 -19 -9 -24 -31 -19 -21 6 -26 29 -6 36 17 6 37 -3 37 -17z m5245
-476 c3 -5 1 -10 -4 -10 -6 0 -11 5 -11 10 0 6 2 10 4 10 3 0 8 -4 11 -10z
m-5515 -103 c0 -16 -4 -26 -10 -22 -5 3 -10 13 -10 21 0 7 -9 19 -20 26 -20
13 -26 38 -13 52 12 11 52 -47 53 -77z m66 -84 c4 -21 10 -43 14 -48 5 -6 2
-19 -6 -30 -27 -36 -49 10 -45 93 2 37 29 26 37 -15z m321 -875 c-3 -8 -6 -5
-6 6 -1 11 2 17 5 13 3 -3 4 -12 1 -19z m-2492 -428 c3 -5 -1 -10 -10 -10 -9
0 -13 5 -10 10 3 6 8 10 10 10 2 0 7 -4 10 -10z m-40 -60 c3 -6 -1 -13 -10
-16 -12 -5 -13 -9 -4 -20 6 -8 8 -14 4 -14 -4 0 -2 -7 5 -15 11 -13 10 -14 -5
-8 -14 5 -17 3 -13 -9 4 -9 1 -21 -5 -27 -8 -8 -8 -11 0 -11 8 0 8 -7 0 -25
-13 -28 -35 -33 -43 -10 -5 12 4 45 41 153 5 15 21 16 30 2z m-1225 -130 c0
-11 -4 -20 -10 -20 -5 0 -10 9 -10 20 0 11 5 20 10 20 6 0 10 -9 10 -20z
m1003 -2 c-3 -13 -16 -33 -29 -44 -13 -12 -24 -26 -24 -32 0 -6 -8 -16 -17
-21 -11 -6 -13 -11 -5 -11 8 0 10 -5 6 -12 -4 -7 2 -4 14 6 18 15 22 16 22 4
0 -8 -3 -18 -7 -22 -5 -4 -8 -13 -8 -19 0 -7 -4 -12 -10 -12 -5 0 -16 -4 -24
-9 -11 -7 -11 -10 0 -17 19 -12 17 -106 -3 -150 -22 -47 -32 -99 -19 -99 6 0
8 -7 5 -15 -4 -9 0 -15 9 -15 8 0 14 6 14 13 -1 20 27 107 34 107 4 0 11 -9
14 -20 3 -11 10 -20 15 -20 10 0 3 -45 -11 -72 -5 -10 -6 -18 -2 -18 4 0 -2
-7 -13 -15 -10 -8 -15 -15 -10 -15 20 0 -19 -30 -41 -30 -25 0 -49 -39 -31
-51 15 -9 -3 -59 -21 -59 -13 0 -93 209 -99 257 -2 24 0 48 6 55 5 7 13 28 17
46 4 18 19 47 33 64 14 17 28 40 29 52 2 12 13 29 26 40 12 10 22 21 22 25 1
13 36 71 43 71 4 0 16 14 25 30 22 36 48 41 40 8z m-1063 -22 c0 -7 10 -21 21
-32 39 -34 65 -133 40 -148 -28 -17 -113 162 -90 190 13 15 29 10 29 -10z
m1240 -69 c0 -8 -6 -14 -14 -14 -8 0 -12 6 -9 14 3 7 9 13 14 13 5 0 9 -6 9
-13z m-1819 -120 c-9 -22 -9 -22 -21 4 -10 21 -9 31 1 50 l12 24 8 -28 c4 -16
4 -38 0 -50z m-401 -127 c14 -50 5 -87 -16 -69 -20 17 -18 109 2 109 2 0 8
-18 14 -40z m4724 -32 c4 -22 1 -39 -11 -57 -10 -14 -23 -39 -29 -55 -12 -33
-34 -47 -34 -21 0 16 21 87 41 143 12 31 25 27 33 -10z m4636 2 c56 -40 78
-175 40 -238 -30 -49 -53 -40 -61 24 -4 28 -11 59 -16 70 -17 34 -44 144 -38
154 10 16 45 11 75 -10z m-9220 -272 c0 -17 -3 -18 -15 -8 -8 7 -15 21 -15 32
0 17 3 18 15 8 8 -7 15 -21 15 -32z m1853 22 c8 -33 8 -35 -11 -35 -9 -1 -22
-4 -29 -8 -8 -5 -8 -1 0 18 7 14 16 25 20 25 5 0 5 5 2 10 -3 6 -2 10 3 10 5
0 12 -9 15 -20z m7441 -101 c31 -33 56 -66 56 -73 0 -6 18 -29 39 -50 25 -25
45 -57 56 -91 9 -30 31 -73 50 -97 18 -24 40 -63 48 -88 9 -25 30 -76 47 -115
18 -38 40 -97 50 -130 10 -33 28 -78 39 -100 12 -21 21 -50 21 -63 0 -13 11
-61 25 -106 13 -44 29 -115 35 -156 6 -41 15 -90 21 -108 18 -55 16 -403 -4
-511 -9 -51 -21 -98 -26 -105 -5 -6 -12 -26 -16 -45 -23 -109 -188 -381 -230
-381 -18 0 -18 28 -6 268 9 155 5 235 -18 395 -7 53 -16 75 -40 102 -17 20
-31 42 -31 51 0 24 -76 167 -100 189 -42 38 -94 128 -94 165 0 36 53 159 84
195 30 34 42 253 21 390 -9 62 -19 91 -45 130 -51 75 -77 133 -75 163 2 15 -5
44 -15 66 -17 38 -16 60 10 154 8 27 45 9 98 -49z m-7409 7 c18 -13 18 -16 3
-69 -9 -31 -13 -58 -10 -62 3 -3 7 -12 8 -21 2 -12 -1 -13 -11 -4 -8 7 -18 9
-24 6 -11 -7 -48 67 -54 110 -4 28 -3 30 19 26 16 -3 26 1 30 12 8 20 15 20
39 2z m10 -214 c0 -21 5 -27 22 -27 13 0 23 -5 22 -10 0 -5 10 -13 22 -17 18
-7 20 -11 10 -21 -9 -9 -14 -9 -20 2 -7 11 -10 11 -17 -1 -5 -8 -16 -17 -24
-20 -12 -5 -11 -7 5 -14 27 -11 46 -30 37 -38 -3 -4 1 -4 10 -1 13 5 19 0 24
-19 3 -14 9 -24 14 -21 4 2 16 -3 26 -11 10 -9 14 -13 7 -10 -6 4 -14 2 -18
-4 -3 -5 1 -10 10 -10 9 0 14 -4 10 -9 -3 -5 -1 -12 5 -16 6 -4 6 -10 0 -18
-6 -7 -20 -25 -31 -40 -12 -15 -24 -26 -27 -23 -3 3 -10 -1 -16 -9 -9 -12 -16
-12 -43 0 -39 17 -42 29 -8 31 15 1 22 -2 18 -9 -3 -6 -1 -7 6 -3 7 5 8 13 4
19 -5 7 -10 26 -12 42 -3 27 -12 40 -34 48 -5 1 -9 16 -8 32 0 17 0 41 1 54 0
14 -9 40 -21 60 -19 32 -19 36 -5 47 9 6 16 22 16 34 0 13 3 20 8 16 4 -4 7
-20 7 -34z m-651 -153 c-11 -18 -32 -9 -27 11 4 16 8 18 19 9 8 -6 11 -15 8
-20z m196 -197 c0 -15 -56 -75 -73 -78 -23 -3 -28 21 -7 39 10 8 21 13 23 10
3 -2 10 5 17 16 10 20 40 30 40 13z m191 -40 c-11 -4 -11 -6 0 -13 11 -7 9
-12 -9 -24 -24 -18 -20 -40 5 -30 14 5 14 3 2 -12 -8 -9 -9 -14 -3 -10 7 4 26
-6 44 -23 17 -16 35 -29 38 -29 21 3 32 -3 32 -16 0 -8 -5 -15 -11 -15 -5 0
-7 -4 -4 -10 10 -16 25 -11 25 8 0 26 11 34 27 21 9 -9 17 -8 27 0 11 10 14 9
12 -3 -1 -9 -5 -19 -9 -22 -4 -4 0 -15 9 -25 15 -17 17 -16 35 2 10 10 19 30
19 43 0 13 8 27 17 30 15 6 15 8 3 17 -10 6 0 8 33 5 43 -4 46 -3 30 10 -16
12 -11 16 14 13 3 0 10 6 14 14 9 15 51 18 47 3 -2 -5 7 -13 20 -17 13 -5 20
-13 17 -19 -4 -6 7 -10 26 -10 29 0 34 -14 6 -15 -7 -1 -11 -7 -9 -15 3 -11 0
-11 -14 1 -12 9 -15 9 -10 2 4 -8 1 -13 -9 -13 -10 0 -13 5 -9 13 5 8 2 8 -9
-2 -15 -12 -21 -9 -19 9 0 3 -13 7 -29 8 -16 1 -29 -2 -29 -8 0 -5 6 -10 14
-10 8 0 18 -5 22 -12 4 -6 3 -8 -3 -5 -12 8 -25 -17 -15 -28 4 -4 7 -12 7 -18
0 -5 7 -12 15 -15 8 -3 12 -1 8 3 -4 5 -2 15 5 23 9 13 9 14 0 8 -7 -4 -13 -3
-13 1 0 12 37 33 44 26 3 -3 1 -12 -5 -20 -7 -8 -8 -13 -1 -13 5 0 15 -13 22
-30 7 -16 16 -30 20 -30 4 0 10 -9 13 -20 4 -16 11 -20 30 -16 28 5 31 -12 6
-37 -10 -10 -21 -12 -30 -6 -23 14 -36 10 -16 -5 15 -12 16 -18 7 -35 -9 -17
-8 -21 5 -21 9 0 13 5 10 10 -3 6 -4 10 -1 10 2 0 11 3 20 6 9 3 16 1 16 -6 0
-6 -4 -9 -8 -6 -5 3 -9 -1 -9 -9 0 -11 4 -12 14 -4 9 9 19 7 38 -5 29 -19 30
-25 12 -51 -10 -12 -16 -14 -21 -7 -4 7 -13 12 -19 12 -8 0 -7 -3 2 -9 7 -5
10 -14 7 -20 -4 -6 -11 -9 -16 -6 -4 3 -14 -3 -21 -13 -13 -15 -12 -16 3 -3
16 12 19 10 27 -10 10 -24 10 -24 10 4 1 15 6 28 11 28 6 1 16 2 22 3 16 1 20
76 5 76 -8 0 -7 4 0 11 6 6 17 8 23 4 8 -5 8 -11 2 -17 -13 -13 6 -60 20 -52
5 3 16 -3 26 -13 9 -11 13 -14 9 -7 -4 7 -3 15 3 19 6 4 10 3 9 -2 -1 -4 1
-16 5 -25 6 -14 12 -15 27 -7 11 5 17 14 14 19 -3 5 3 13 12 19 16 9 16 10 1
11 -11 0 -15 6 -11 20 5 17 8 18 21 8 11 -9 13 -9 9 -1 -4 6 -3 15 3 18 6 4
10 3 9 -2 -1 -4 -1 -23 0 -40 1 -27 5 -33 24 -33 15 0 18 3 9 9 -10 6 -10 10
2 20 14 11 14 16 1 33 -11 17 -12 24 0 42 7 11 11 30 8 41 -10 41 -8 80 5 81
6 1 17 2 22 3 6 1 4 15 -4 36 -19 45 -20 40 9 71 19 21 22 30 14 45 -12 23 -4
40 15 33 7 -3 13 2 13 11 0 8 -4 15 -9 15 -4 0 -8 4 -8 9 0 12 59 20 66 9 3
-5 10 -6 15 -3 5 4 9 1 9 -4 0 -6 -7 -11 -16 -11 -8 0 -12 -4 -9 -10 3 -5 18
-10 32 -10 20 0 24 -4 20 -20 -3 -11 -1 -20 4 -20 5 0 9 -6 9 -14 0 -8 9 -18
20 -21 21 -7 23 -16 20 -72 -1 -22 3 -33 12 -33 18 0 12 -65 -8 -81 -11 -9
-11 -15 -3 -25 6 -7 11 -36 11 -63 -1 -41 3 -51 19 -56 10 -4 19 -13 19 -21 0
-20 30 -17 36 4 3 9 11 27 17 40 14 29 29 8 16 -25 -5 -14 -5 -23 1 -23 6 0
10 -4 10 -9 0 -5 -9 -7 -20 -4 -11 3 -20 0 -20 -6 0 -5 -7 -8 -15 -5 -20 8
-19 -6 3 -23 9 -8 11 -11 3 -7 -10 5 -12 3 -7 -5 6 -9 11 -9 21 -1 8 7 15 7
19 1 4 -5 2 -12 -4 -16 -5 -3 -10 -11 -10 -16 0 -6 4 -8 9 -4 5 3 13 -4 16
-15 5 -16 10 -19 20 -10 10 9 16 7 24 -8 12 -22 9 -54 -6 -59 -17 -6 -3 -49
27 -82 17 -19 27 -39 25 -51 -2 -13 2 -20 11 -20 8 0 14 5 14 10 0 6 -5 10
-10 10 -7 0 -7 6 -1 18 7 13 7 22 0 29 -7 7 -1 16 17 28 27 17 27 17 20 -6
-21 -67 -23 -100 -9 -115 15 -14 38 -10 28 6 -3 4 2 14 11 21 14 12 16 7 13
-51 -4 -62 -3 -65 19 -64 16 1 20 -2 12 -11 -5 -6 -7 -14 -4 -17 2 -3 -2 -8
-10 -11 -8 -3 -17 1 -20 9 -3 8 -2 12 3 9 5 -3 12 -1 15 4 8 12 -13 8 -44 -8
-33 -18 -31 -16 -24 -34 4 -12 11 -14 29 -7 23 9 45 -3 31 -17 -3 -3 0 -13 6
-22 7 -9 8 -13 4 -9 -8 7 -23 -14 -38 -53 -5 -14 -3 -14 27 0 18 9 31 18 30
21 -2 3 7 10 19 16 17 8 25 7 34 -3 8 -8 9 -13 2 -13 -5 0 -10 -9 -10 -19 0
-15 -8 -21 -34 -23 -31 -3 -33 -5 -22 -20 13 -17 61 -14 50 3 -3 5 0 9 5 9 11
0 15 -14 11 -40 -2 -16 -20 -31 -30 -25 -8 5 -12 -44 -4 -56 3 -5 18 -2 34 6
16 8 34 15 40 15 17 0 11 -57 -7 -71 -17 -13 -17 -13 -3 5 14 18 13 19 -2 13
-13 -4 -16 -1 -13 15 4 20 4 20 -13 3 -16 -17 -15 -20 26 -61 23 -25 42 -51
42 -60 0 -8 5 -12 10 -9 9 6 15 -8 11 -29 -1 -5 5 -3 14 4 9 7 15 9 14 4 -4
-20 2 -26 15 -15 11 9 15 8 20 -4 3 -9 10 -13 16 -10 5 3 10 1 10 -6 0 -7 3
-9 7 -6 3 4 13 1 21 -6 11 -8 14 -8 9 0 -4 6 -3 14 2 17 16 10 61 -53 61 -86
0 -17 7 -39 15 -48 15 -16 14 -18 -10 -22 -14 -3 -25 -2 -25 2 0 4 -6 7 -13 7
-9 0 -14 -11 -13 -26 1 -18 8 -27 24 -31 13 -3 24 -9 25 -15 2 -10 42 -15 64
-7 7 2 10 8 7 13 -3 5 4 9 14 9 30 0 34 -26 6 -39 -29 -13 -30 -38 -3 -71 11
-14 17 -19 13 -11 -5 9 -3 12 4 7 17 -10 15 -36 -3 -36 -8 0 -19 9 -25 20 -6
11 -16 20 -23 20 -7 0 -6 -4 3 -10 13 -9 13 -10 0 -10 -11 -1 -10 -4 4 -15 11
-8 16 -15 10 -15 -5 0 -15 -9 -21 -19 -10 -16 -9 -20 4 -25 10 -4 14 -2 10 8
-3 8 1 17 9 20 10 4 14 -2 14 -19 0 -16 6 -25 16 -25 8 0 13 -4 9 -9 -3 -5 0
-13 6 -16 6 -4 13 2 16 14 7 27 19 27 35 -1 29 -53 13 -94 -37 -93 -15 0 -19
6 -17 24 3 19 0 22 -13 18 -9 -4 -14 -3 -11 2 3 5 -1 14 -9 21 -12 10 -15 10
-16 -1 0 -8 -2 -22 -4 -32 -2 -9 1 -15 5 -12 15 9 23 -17 9 -27 -10 -7 -7 -8
12 -6 14 3 31 -1 37 -9 7 -7 9 -13 5 -13 -4 0 0 -5 10 -11 9 -5 21 -8 25 -5 5
3 16 -8 26 -25 14 -24 15 -29 2 -29 -9 0 -13 -8 -11 -25 2 -19 -2 -25 -19 -26
-67 -3 -70 -4 -76 -29 -7 -30 -1 -72 10 -65 4 3 11 -2 14 -11 4 -11 2 -15 -8
-11 -10 4 -12 0 -9 -14 3 -11 0 -19 -6 -19 -7 0 -10 3 -8 8 3 4 -5 8 -16 8
-34 3 -54 9 -69 21 -7 7 -19 8 -26 4 -9 -5 -5 -11 13 -19 14 -7 24 -16 21 -21
-3 -5 1 -12 10 -15 9 -3 12 -11 8 -18 -4 -7 3 -4 15 6 17 16 21 17 16 4 -5
-12 -2 -16 12 -13 10 1 17 8 16 13 -2 6 4 9 12 6 8 -4 12 -11 8 -18 -4 -6 -8
-14 -8 -18 0 -12 -15 -22 -15 -10 0 7 -5 12 -11 12 -8 0 -8 -4 -2 -12 6 -7 13
-23 16 -35 5 -22 -2 -28 -32 -24 -7 2 -10 -2 -6 -8 3 -6 -1 -11 -9 -11 -9 0
-16 -7 -16 -15 0 -8 7 -15 16 -15 13 0 14 -3 5 -13 -6 -8 -8 -17 -4 -20 9 -9
34 13 27 24 -3 5 0 9 5 9 6 0 11 -5 11 -11 0 -5 5 -7 12 -3 7 4 8 3 4 -4 -4
-7 -13 -12 -21 -12 -19 0 -24 -21 -12 -48 8 -18 8 -26 -4 -33 -8 -5 -9 -9 -3
-9 5 0 15 5 21 11 6 6 16 8 22 5 20 -13 11 -31 -21 -45 -30 -14 -31 -15 -10
-22 12 -5 22 -11 22 -14 0 -4 -5 -3 -11 0 -13 8 12 -37 26 -47 6 -4 0 -8 -13
-8 -13 0 -21 -4 -18 -9 5 -8 -5 -12 -56 -26 -5 -2 -10 -4 -13 -5 -3 -1 -9 -3
-14 -4 -27 -3 -17 -14 11 -11 33 2 58 -9 58 -27 0 -7 -5 -6 -13 1 -18 15 -29
3 -17 -19 5 -10 7 -20 4 -23 -3 -3 -1 -14 5 -26 7 -12 7 -22 2 -26 -6 -3 -8
-14 -6 -25 2 -11 0 -22 -4 -25 -5 -2 -6 -16 -3 -30 2 -14 -1 -31 -7 -39 -9
-11 -9 -15 1 -20 7 -3 3 -4 -9 -2 -15 3 -23 -1 -23 -10 0 -8 -15 -16 -40 -20
-22 -4 -37 -10 -35 -15 3 -4 2 -10 -2 -12 -5 -3 -9 11 -10 30 -2 34 -2 34 22
19 28 -18 55 -12 55 13 0 9 5 22 11 28 8 8 8 13 0 18 -6 3 -14 -1 -17 -10 -5
-12 -10 -13 -20 -4 -7 6 -18 8 -23 5 -13 -8 -30 24 -23 43 2 7 -6 3 -19 -10
-18 -18 -24 -20 -27 -8 -3 8 -9 22 -14 31 -6 14 -5 16 7 12 8 -4 15 -2 15 4 0
5 -16 13 -36 17 -44 8 -36 19 19 24 11 1 8 51 -4 51 -5 0 -7 6 -3 13 6 8 3 8
-9 -1 -14 -12 -16 -11 -12 6 3 16 -3 21 -26 24 -16 3 -29 3 -29 2 0 -1 -3 -9
-6 -17 -3 -10 2 -17 13 -20 14 -4 13 -5 -5 -6 -13 0 -21 -4 -19 -8 3 -5 -5
-16 -18 -25 -23 -18 -24 -17 -53 23 -17 23 -29 49 -27 59 2 12 -1 17 -10 14
-7 -3 -16 0 -21 7 -5 8 -3 10 7 4 12 -8 12 -6 0 8 -12 15 -12 19 4 31 18 13
12 42 -6 31 -5 -4 -9 -1 -9 4 0 6 5 11 10 11 15 0 12 47 -4 53 -17 7 -51 -28
-41 -42 4 -7 0 -8 -10 -5 -14 6 -14 8 0 24 11 13 13 19 4 22 -6 2 -13 15 -14
28 -1 14 -3 25 -4 25 -2 0 -4 9 -6 20 -2 11 -9 21 -15 23 -5 2 -8 7 -5 12 3 4
-2 11 -11 14 -8 3 -12 2 -9 -4 3 -5 0 -7 -8 -4 -15 5 -17 20 -5 39 6 10 -15
35 -29 36 -5 0 -7 9 -6 20 2 11 -4 22 -12 25 -25 10 -18 33 9 28 14 -2 28 0
31 6 4 6 -5 10 -20 10 -15 0 -28 7 -32 18 -4 9 -11 20 -16 24 -6 3 -1 23 12
48 12 23 17 39 11 35 -5 -3 -10 -1 -10 5 0 6 -4 9 -9 5 -5 -3 -12 -1 -16 5 -4
6 -12 7 -18 3 -7 -4 -6 1 2 10 9 12 17 14 26 7 14 -12 25 -3 25 22 0 10 -6 18
-14 18 -9 0 -13 9 -12 24 3 23 2 24 -20 9 -22 -14 -23 -14 -19 6 2 12 0 21 -6
21 -5 0 -9 8 -10 18 0 14 -2 14 -8 -3 -5 -11 -6 -24 -3 -29 3 -5 0 -6 -6 -2
-6 4 -19 -2 -28 -13 -15 -17 -19 -18 -39 -5 -12 8 -24 11 -28 8 -3 -3 -3 3 0
15 5 21 43 30 43 11 0 -17 27 -11 35 8 4 9 8 29 9 44 1 32 11 44 22 27 5 -8 3
-10 -6 -4 -9 5 -11 4 -6 -4 6 -8 12 -9 20 -2 7 6 15 8 19 5 3 -3 3 3 0 15 -3
12 -9 21 -14 21 -5 0 -9 4 -9 10 0 5 8 7 18 4 15 -5 15 -5 0 5 -10 7 -15 22
-13 43 2 34 -11 62 -25 53 -5 -3 -11 -1 -15 5 -10 16 -23 12 -30 -11 -5 -15
-10 -17 -20 -9 -7 6 -20 8 -29 4 -10 -4 -16 -1 -16 7 0 7 3 9 7 6 12 -13 33
15 33 44 0 17 5 28 12 27 6 -2 14 5 16 15 2 9 -1 17 -7 17 -6 0 -11 -5 -11
-11 0 -8 -5 -8 -15 1 -8 7 -15 18 -15 25 0 6 -6 12 -12 12 -7 0 -24 3 -38 5
-14 3 -20 3 -13 1 20 -7 11 -41 -9 -35 -10 2 -15 8 -12 13 3 5 -5 9 -18 9 -25
1 -82 29 -59 30 8 0 11 3 8 7 -4 3 -17 -2 -29 -13 -12 -10 -18 -13 -14 -6 4 7
1 12 -8 12 -23 0 -20 21 4 27 24 6 25 20 3 45 -10 12 -12 18 -4 18 7 0 9 5 5
11 -3 6 0 15 7 20 11 7 9 13 -11 30 -14 11 -20 18 -15 16 6 -3 11 3 11 13 0
13 -4 16 -11 10 -13 -11 -79 26 -71 39 3 5 -5 16 -19 25 -15 10 -23 23 -20 36
2 11 -1 20 -6 20 -5 0 -13 8 -16 18 -11 27 -37 51 -61 55 -12 2 -25 7 -29 12
-5 4 -2 5 5 1 7 -4 12 -2 12 6 0 22 -17 41 -30 33 -7 -4 -13 1 -17 13 -3 14
-11 19 -24 17 -11 -2 -17 0 -14 5 3 5 -4 12 -16 15 -20 7 -20 8 -5 24 14 13
18 14 25 2 5 -8 16 -11 25 -8 9 4 16 2 16 -3 0 -5 6 -7 13 -4 24 9 15 34 -12
35 -14 1 -30 1 -34 0 -4 -1 -17 -3 -29 -5 -12 -1 -24 -8 -26 -14 -2 -7 -10
-12 -19 -12 -8 0 -13 -6 -10 -12 2 -7 15 -13 29 -12 14 1 25 -4 25 -12 0 -7
-5 -12 -11 -11 -6 1 -10 -3 -9 -9 1 -6 -5 -11 -13 -11 -8 0 -14 4 -14 9 0 4 5
8 10 8 6 0 10 4 10 9 0 5 -13 8 -29 6 -22 -3 -30 1 -34 17 -3 11 -10 17 -15
14 -5 -3 -14 6 -20 19 -7 15 -8 26 -2 30 21 13 9 21 -24 17 -34 -4 -34 -4 -31
32 2 21 0 34 -6 30 -5 -3 -7 -9 -5 -13 3 -4 -2 -8 -10 -8 -8 0 -13 6 -10 13 3
7 0 15 -7 18 -7 3 -3 7 10 11 15 5 20 14 18 31 -1 14 2 27 8 31 6 4 7 1 2 -8
-6 -11 -5 -12 5 -2 10 10 11 15 1 27 -10 12 -9 15 6 19 10 3 1 5 -19 6 -21 0
-38 4 -38 7 0 15 22 44 30 39 6 -3 7 1 4 9 -3 9 -10 16 -15 16 -5 0 -7 11 -5
24 4 23 2 24 -19 16 -17 -6 -27 -5 -35 6 -10 11 -9 14 4 14 9 0 16 4 16 8 0
17 -30 8 -36 -10 -5 -17 -15 -22 -30 -15 -3 1 -12 -9 -20 -23 -8 -14 -14 -18
-13 -10 3 27 -1 41 -9 36 -4 -2 -9 6 -10 20 -1 13 -11 33 -22 44 -12 12 -18
26 -14 31 4 8 9 7 14 -2 5 -7 22 -14 39 -15 29 -2 31 0 29 28 -2 20 -9 33 -22
37 -13 5 -16 10 -8 15 9 5 8 16 -2 40 -9 23 -11 37 -4 44 6 6 6 12 -3 17 -7 5
-10 4 -5 -3 3 -6 2 -13 -4 -17 -6 -4 -8 -11 -5 -16 3 -5 -1 -6 -9 -3 -11 4
-16 0 -16 -14 0 -16 -5 -19 -22 -15 -19 5 -21 3 -11 -7 8 -9 9 -19 2 -32 -5
-10 -7 -23 -4 -28 3 -6 1 -10 -4 -10 -6 0 -11 10 -11 23 0 18 -2 19 -10 7 -9
-14 -15 -7 -11 14 1 5 -4 6 -12 3 -7 -3 -14 1 -14 9 0 7 4 11 8 9 4 -3 15 -2
24 1 16 6 16 8 1 16 -9 5 -16 15 -16 23 0 8 -6 12 -14 9 -20 -8 -47 35 -40 63
5 17 2 23 -10 23 -9 0 -16 7 -16 16 0 9 -5 12 -12 8 -10 -6 -10 -4 0 7 17 18
15 32 -3 25 -17 -6 -16 12 3 32 6 7 12 20 12 27 0 18 -29 47 -40 40 -5 -3 -11
-1 -14 4 -4 5 -2 12 2 15 13 8 3 53 -14 67 -8 6 -14 19 -14 28 0 9 -9 25 -21
34 -17 15 -18 21 -8 33 10 12 8 19 -10 37 -11 13 -21 28 -21 33 0 17 84 75
105 72 22 -3 26 -41 12 -132 -7 -48 -7 -48 15 -34 12 8 31 30 41 49 11 18 32
47 48 63 17 18 25 32 19 36 -17 10 -1 40 18 33 12 -5 13 -8 3 -11z m-841 -70
c0 -14 -39 -46 -47 -39 -3 4 2 16 12 27 19 21 35 26 35 12z m620 -127 c0 -2
-7 -5 -15 -9 -9 -3 -15 0 -15 9 0 9 6 12 15 9 8 -4 15 -7 15 -9z m25 -76 c11
-17 -1 -21 -15 -4 -8 9 -8 15 -2 15 6 0 14 -5 17 -11z m6605 -9 c0 -5 -7 -10
-15 -10 -8 0 -15 5 -15 10 0 6 7 10 15 10 8 0 15 -4 15 -10z m-5723 -6 c-3 -3
-12 -4 -19 -1 -8 3 -5 6 6 6 11 1 17 -2 13 -5z m2153 -20 c0 -8 -4 -12 -10 -9
-5 3 -10 10 -10 16 0 5 5 9 10 9 6 0 10 -7 10 -16z m-2226 -31 c-21 -15 -31
-9 -16 10 7 8 8 18 4 23 -4 4 1 2 11 -6 18 -13 18 -15 1 -27z m5874 5 c11 -41
6 -51 -19 -38 -27 15 -25 70 2 70 5 0 12 -15 17 -32z m-5827 -5 c13 -16 12
-17 -3 -4 -17 13 -22 21 -14 21 2 0 10 -8 17 -17z m68 3 c-5 -6 -9 -17 -9 -27
0 -14 -22 -19 -49 -10 -2 0 4 10 13 20 17 18 17 19 -1 24 -10 2 -1 4 19 3 23
-1 33 -5 27 -10z m2310 -803 c19 -16 20 -22 10 -53 -7 -19 -14 -41 -16 -49 -7
-26 -26 5 -33 56 -11 67 -1 78 39 46z m-2595 -139 c3 -8 11 -12 17 -8 8 4 7 9
-2 15 -8 5 -9 9 -4 9 26 0 29 -16 7 -37 -24 -25 -29 -26 -54 -12 -33 18 -21
40 23 48 4 0 10 -6 13 -15z m131 -64 c3 -6 -1 -7 -9 -4 -18 7 -21 14 -7 14 6
0 13 -4 16 -10z m2460 -170 c8 -35 -3 -60 -16 -39 -12 19 -11 69 0 69 5 0 12
-13 16 -30z m-1275 -51 c0 -5 -7 -9 -15 -9 -9 0 -12 6 -9 15 6 15 24 11 24 -6z
m-879 -178 c3 -1 6 -7 6 -15 0 -19 -44 -17 -59 2 -10 12 -10 14 0 8 6 -4 12
-3 12 3 0 5 8 8 18 6 9 -2 20 -4 23 -4z m39 -87 c0 -8 -5 -12 -10 -9 -6 4 -8
11 -5 16 9 14 15 11 15 -7z m1848 -19 c-3 -3 -9 2 -12 12 -6 14 -5 15 5 6 7
-7 10 -15 7 -18z m-928 11 c0 -3 -4 -8 -10 -11 -5 -3 -10 -1 -10 4 0 6 5 11
10 11 6 0 10 -2 10 -4z m-798 -30 c19 -9 18 -73 -1 -68 -6 1 -11 -4 -11 -10 0
-9 -4 -8 -10 2 -6 9 -10 10 -10 3 0 -8 -9 -7 -30 3 -25 13 -28 18 -19 35 5 11
14 17 20 14 8 -5 13 7 11 26 -1 8 28 5 50 -5z m1568 -16 c0 -5 -5 -10 -11 -10
-5 0 -7 5 -4 10 3 6 8 10 11 10 2 0 4 -4 4 -10z m151 -17 c13 -16 12 -17 -3
-4 -17 13 -22 21 -14 21 2 0 10 -8 17 -17z m55 2 c-3 -20 -16 -31 -16 -13 0
13 8 28 16 28 1 0 1 -7 0 -15z m-176 -31 c0 -2 -9 0 -20 6 -11 6 -20 13 -20
16 0 2 9 0 20 -6 11 -6 20 -13 20 -16z m210 -29 c0 -8 -4 -15 -10 -15 -5 0
-10 7 -10 15 0 8 5 15 10 15 6 0 10 -7 10 -15z m-190 -110 c4 3 7 -3 5 -12 -1
-10 -8 -17 -14 -15 -7 1 -10 -8 -7 -24 5 -27 2 -26 -40 11 -13 12 12 58 27 49
5 -3 10 1 10 8 1 7 3 5 6 -5 2 -9 8 -15 13 -12z m-685 -5 c3 -6 -1 -7 -9 -4
-18 7 -21 14 -7 14 6 0 13 -4 16 -10z m962 -25 c-22 -16 -22 -41 1 -54 9 -6
15 -11 12 -11 -3 0 -23 -3 -45 -6 l-40 -5 22 19 c15 14 21 27 18 45 -4 19 0
27 12 29 27 7 38 -4 20 -17z m-193 -34 c19 -11 37 -18 40 -15 3 2 2 -2 -4 -8
-16 -19 -12 -31 7 -24 10 4 14 4 10 0 -4 -4 3 -18 15 -31 12 -13 17 -24 12
-24 -32 -4 -41 -2 -56 11 -9 8 -20 29 -24 45 -4 17 -11 36 -17 42 -11 14 -31
7 -21 -8 3 -5 9 -7 14 -4 5 3 8 -3 7 -14 0 -11 -4 -19 -7 -19 -25 2 -32 -3
-21 -15 6 -8 7 -18 3 -22 -4 -5 -1 -5 6 -1 7 4 9 13 6 19 -5 9 -4 9 6 1 9 -9
22 -94 14 -94 -1 0 -11 9 -23 19 -13 11 -28 22 -34 24 -9 3 -9 8 -1 18 6 8 10
38 9 67 -3 59 4 63 59 33z m86 -26 c11 -13 10 -14 -4 -9 -9 3 -16 10 -16 15 0
13 6 11 20 -6z m-184 -30 c-4 -28 -21 -35 -21 -9 0 13 5 24 12 24 6 0 10 -7 9
-15z m369 -77 c5 -19 3 -28 -5 -28 -6 0 -9 4 -6 8 3 5 -4 16 -16 26 -17 15
-18 20 -7 27 17 10 26 2 34 -33z m-1056 -7 c9 -16 7 -17 -14 -13 -25 4 -31 13
-18 25 11 12 22 8 32 -12z m651 15 c0 -2 -7 -7 -16 -10 -8 -3 -12 -2 -9 4 6
10 25 14 25 6z m87 -36 c-3 -11 0 -20 6 -21 7 0 2 -4 -11 -10 -15 -5 -21 -13
-16 -21 4 -7 3 -9 -2 -5 -11 10 -14 58 -2 51 4 -3 11 2 14 10 9 23 17 20 11
-4z m-96 -3 c19 -14 21 -47 3 -40 -7 2 -10 12 -7 20 4 11 2 14 -5 9 -15 -9
-34 2 -27 15 8 12 17 11 36 -4z m-711 -6 c0 -12 -20 -25 -27 -18 -7 7 6 27 18
27 5 0 9 -4 9 -9z m920 -19 c0 -17 -15 -20 -49 -13 -2 1 2 8 9 16 17 21 40 19
40 -3z m-843 -15 c-6 -20 -27 -19 -27 2 0 14 5 19 15 14 9 -3 14 -10 12 -16z
m533 -17 c0 -5 -2 -10 -4 -10 -3 0 -8 5 -11 10 -3 6 -1 10 4 10 6 0 11 -4 11
-10z m-679 -13 c-6 -8 -8 -17 -4 -20 3 -4 3 -7 0 -7 -3 0 -11 9 -17 20 -9 17
-8 20 11 20 17 0 19 -3 10 -13z m79 6 c-8 -3 -22 -11 -30 -17 -13 -10 -13 -9
-1 7 7 9 21 17 30 16 13 0 14 -1 1 -6z m913 -24 c5 -3 2 -9 -5 -12 -9 -3 -14
3 -15 15 -1 11 1 16 5 12 4 -5 11 -12 15 -15z m-157 -21 c1 -11 -4 -18 -13
-18 -9 0 -13 6 -10 14 4 10 0 13 -14 11 -11 -2 -17 0 -15 4 10 15 49 6 52 -11z
m34 -8 c0 -10 -7 -25 -15 -33 -8 -8 -12 -16 -10 -19 2 -2 -6 -5 -18 -5 -17 -2
-19 0 -7 7 8 5 11 10 7 10 -5 0 1 12 12 26 11 15 18 31 14 37 -3 6 -1 7 5 3 7
-4 12 -16 12 -26z m60 26 c0 -2 -8 -10 -17 -17 -16 -13 -17 -12 -4 4 13 16 21
21 21 13z m-193 -12 c-3 -3 -12 -4 -19 -1 -8 3 -5 6 6 6 11 1 17 -2 13 -5z
m-744 -11 c-7 -2 -19 -2 -25 0 -7 3 -2 5 12 5 14 0 19 -2 13 -5z m723 -20 c-3
-8 -6 -17 -6 -19 0 -3 -4 -2 -10 1 -17 11 -12 45 6 38 8 -3 13 -12 10 -20z
m34 -7 c0 -2 -7 -7 -16 -10 -8 -3 -12 -2 -9 4 6 10 25 14 25 6z m489 -26 c10
-14 11 -21 4 -16 -7 4 -13 3 -13 -3 0 -19 19 -21 29 -4 10 17 12 16 31 -6 12
-14 19 -35 18 -53 -2 -25 -4 -27 -14 -14 -12 17 -29 22 -19 6 4 -7 -2 -7 -18
-1 -14 6 -29 7 -33 3 -5 -4 -2 1 5 11 12 15 11 17 -3 17 -10 0 -15 4 -11 9 3
5 -4 12 -14 16 -11 3 -18 12 -15 21 2 7 6 21 9 30 7 20 24 14 44 -16z m-1202
13 c-4 -3 -1 -13 6 -22 11 -14 10 -14 -5 -2 -16 12 -16 31 -1 31 4 0 3 -3 0
-7z m1543 -74 c14 -52 7 -60 -14 -15 -18 39 -20 56 -6 56 5 0 14 -18 20 -41z
m-757 16 c-3 -9 -8 -14 -10 -11 -3 3 -2 9 2 15 9 16 15 13 8 -4z m254 -26 c-3
-11 0 -19 6 -19 7 0 6 -4 -3 -9 -18 -12 -33 -4 -23 12 4 7 6 20 4 31 -2 12 1
16 9 11 6 -4 10 -16 7 -26z m-680 -6 c0 -7 -11 -13 -24 -13 -12 0 -28 -9 -35
-20 -16 -25 -27 -26 -25 -1 0 10 6 17 12 15 6 -3 19 4 28 14 20 22 44 25 44 5z
m358 8 c-9 -8 -36 -10 -30 -2 2 4 11 8 20 8 8 0 13 -3 10 -6z m76 -14 c-10 -9
-11 -8 -5 6 3 10 9 15 12 12 3 -3 0 -11 -7 -18z m315 1 c4 4 2 -1 -5 -10 -7
-10 -20 -18 -28 -18 -12 0 -13 3 -4 13 6 8 7 18 3 23 -4 4 0 3 9 -4 9 -6 20
-8 25 -4z m-690 -10 c4 -7 4 -10 -1 -6 -4 4 -14 3 -21 -3 -8 -7 -14 -6 -20 2
-4 7 -3 9 4 5 6 -3 13 -2 17 4 8 13 12 13 21 -2z m484 -13 c21 -16 36 -21 40
-15 5 7 11 6 18 -2 12 -15 1 -42 -18 -44 -5 -1 -14 -2 -18 -3 -5 0 -9 -7 -10
-13 -3 -43 -7 -58 -15 -58 -4 0 -6 -4 -3 -9 4 -5 -8 -7 -26 -4 -44 7 -44 7
-47 54 -1 16 -5 19 -23 13 -19 -6 -21 -5 -11 8 11 12 8 14 -17 10 -18 -3 -30
0 -30 7 0 6 6 11 13 12 6 0 22 2 35 3 13 2 22 -3 22 -11 0 -7 8 -13 18 -13 14
0 15 2 2 10 -12 8 -12 10 3 16 9 3 14 11 10 17 -3 5 2 16 12 24 11 7 14 13 9
13 -6 0 -15 -5 -21 -11 -6 -6 -17 -8 -25 -3 -11 7 5 16 43 23 3 1 20 -10 39
-24z m-1514 -17 c3 -4 -1 -5 -10 -4 -8 1 -18 5 -22 8 -3 4 1 5 10 4 8 -1 18
-5 22 -8z m17 -59 c21 0 21 -1 2 -9 -33 -14 -41 -11 -43 18 -1 23 0 24 9 10 5
-10 20 -18 32 -19z m901 10 c-3 -5 -10 -7 -15 -3 -5 3 -7 10 -3 15 3 5 10 7
15 3 5 -3 7 -10 3 -15z m846 -15 c0 -3 -7 -1 -15 6 -8 7 -15 17 -15 22 0 5 7
3 15 -6 8 -8 15 -18 15 -22z m-33 0 c-3 -3 -12 -4 -19 -1 -8 3 -5 6 6 6 11 1
17 -2 13 -5z m-112 -25 c3 -9 15 -21 28 -27 12 -6 16 -11 9 -11 -8 -1 -10 -6
-6 -13 4 -7 -2 -5 -13 5 -11 10 -24 17 -29 15 -5 -2 -11 2 -12 7 -2 6 -8 17
-12 25 -6 12 -3 16 11 16 10 0 21 -8 24 -17z m143 -2 c8 3 12 -5 12 -22 0 -25
-2 -26 -17 -14 -11 9 -14 10 -9 2 5 -9 2 -11 -8 -7 -8 3 -12 12 -9 20 3 8 -1
14 -11 14 -9 0 -16 4 -16 10 0 6 9 6 23 1 12 -4 28 -6 35 -4z m142 -3 c0 -8
-5 -25 -11 -37 -7 -12 -8 -19 -4 -15 11 10 65 -23 65 -40 0 -7 4 -10 10 -7 5
3 7 0 4 -9 -3 -8 -12 -17 -20 -20 -11 -4 -12 -10 -5 -23 7 -13 5 -21 -7 -30
-12 -9 -13 -12 -3 -11 7 2 15 -2 18 -8 2 -6 -3 -11 -12 -11 -8 0 -16 4 -16 9
-3 19 -5 24 -13 36 -4 7 -5 19 -2 27 3 8 1 15 -5 15 -6 0 -7 5 -4 10 3 6 -1
10 -9 10 -24 0 -51 47 -37 64 10 12 8 13 -10 9 l-21 -6 23 27 c25 29 59 35 59
10z m-555 -14 c-3 -5 -12 -10 -18 -10 -7 0 -6 4 3 10 19 12 23 12 15 0z m460
-20 c-3 -5 0 -10 8 -10 8 0 17 -7 21 -15 5 -13 3 -13 -18 0 -12 8 -27 12 -31
8 -5 -5 -3 0 4 10 14 18 26 24 16 7z m122 -4 c0 -8 -6 -12 -14 -9 -7 3 -10 9
-7 14 8 14 21 11 21 -5z m-338 -25 c26 -25 28 -30 13 -36 -16 -7 -15 -8 1 -14
17 -6 17 -8 3 -20 -14 -12 -16 -11 -17 5 -1 11 -1 24 0 30 2 14 -30 14 -49 0
-11 -8 -10 -3 3 17 10 15 15 32 12 37 -12 19 5 10 34 -19z m123 12 c-6 -2 -10
-9 -6 -14 3 -5 -2 -9 -12 -9 -13 0 -14 3 -4 15 7 8 18 15 24 14 7 0 6 -2 -2
-6z m-229 -20 c-3 -7 -6 -13 -8 -13 -2 0 -5 6 -8 13 -3 8 1 14 8 14 7 0 11 -6
8 -14z m-907 -22 c1 -6 0 -7 -3 -1 -3 6 -11 6 -25 -1 -11 -6 -22 -8 -26 -5 -3
3 0 6 7 6 7 0 10 4 7 8 -3 5 5 8 16 7 12 -1 23 -7 24 -14z m1261 -6 c0 -8 -5
-15 -11 -15 -6 0 -4 -5 4 -10 11 -8 7 -10 -17 -8 -18 1 -33 6 -33 11 0 4 -5 5
-10 2 -13 -8 -8 18 5 27 18 14 62 9 62 -7z m-321 -15 c13 0 26 5 29 10 4 6 11
7 17 4 6 -4 6 -10 -1 -17 -7 -7 -6 -20 4 -43 12 -30 12 -34 -8 -51 -12 -10
-19 -14 -15 -9 4 5 2 16 -5 24 -10 13 -9 14 2 7 10 -5 12 -4 7 3 -4 7 -18 12
-32 12 -14 0 -32 7 -41 16 -14 14 -14 16 3 30 18 15 18 15 -4 11 -19 -5 -21
-3 -11 9 8 10 15 12 23 4 5 -5 20 -10 32 -10z m841 -20 c1 -11 -2 -22 -7 -25
-11 -7 -32 30 -23 39 13 13 29 5 30 -14z m-2122 -68 c-3 -3 0 -10 5 -17 7 -8
4 -11 -10 -10 -27 2 -33 10 -25 35 5 17 9 19 21 9 8 -6 12 -14 9 -17z m1535
14 c0 -10 -7 -12 -22 -8 -21 5 -21 6 -2 13 10 4 20 8 22 8 1 1 2 -5 2 -13z
m120 8 c0 -8 -19 -13 -24 -6 -3 5 1 9 9 9 8 0 15 -2 15 -3z m-427 -35 c2 -8 6
-20 10 -27 5 -7 2 -15 -8 -18 -13 -5 -10 -9 11 -21 15 -7 32 -12 38 -9 6 2 3
5 -6 5 -22 1 -32 17 -17 27 7 4 9 3 5 -4 -3 -6 1 -12 11 -14 25 -5 24 -45 -1
-53 -12 -4 -24 -7 -28 -6 -17 2 -7 -10 14 -18 28 -10 47 11 48 51 0 17 8 31
20 38 11 6 20 9 21 8 8 -31 6 -38 -7 -27 -8 6 -17 9 -21 5 -3 -3 -1 -6 6 -6 9
0 7 -11 -8 -35 -11 -19 -16 -37 -10 -40 5 -4 8 -14 8 -23 -1 -15 -2 -15 -6 1
-4 14 -8 15 -18 7 -9 -8 -15 -8 -20 0 -9 15 -28 13 -19 -2 4 -7 -2 -5 -14 6
-12 10 -21 21 -20 25 2 23 -4 41 -14 41 -9 0 -13 17 -13 54 0 30 3 52 8 49 4
-2 7 1 7 8 0 17 21 -3 23 -22z m387 12 c-8 -6 -17 -8 -21 -6 -3 3 -4 -7 -1
-21 4 -22 6 -23 17 -7 13 17 71 31 61 14 -3 -5 0 -11 6 -14 10 -3 10 -7 -1
-20 -18 -22 -32 -22 -24 1 6 15 5 15 -10 3 -13 -10 -14 -17 -6 -33 15 -27 5
-33 -23 -14 -12 9 -17 16 -10 16 8 0 4 11 -9 30 -17 23 -28 28 -46 24 -14 -4
-23 -2 -23 6 0 6 5 8 10 5 6 -3 10 -2 10 4 0 6 6 8 14 5 8 -3 17 -1 21 5 3 6
16 11 28 11 17 0 19 -2 7 -9z m-1331 -25 c9 -10 7 -17 -6 -27 -16 -12 -17 -12
-6 2 10 12 10 18 1 27 -7 7 -9 12 -6 12 3 0 11 -6 17 -14z m1221 -18 c0 -4
-10 -13 -22 -19 -13 -6 -20 -8 -16 -4 4 4 3 17 -3 28 -7 13 -7 17 -1 13 6 -3
14 -1 18 5 6 11 23 -5 24 -23z m-365 -38 c-3 -4 0 -11 5 -13 6 -3 5 -4 -1 -3
-7 1 -13 10 -15 19 -1 9 2 15 7 11 5 -3 7 -9 4 -14z m300 0 c4 -6 1 -9 -7 -8
-7 2 -12 -3 -10 -10 1 -8 -2 -11 -8 -7 -8 5 -7 11 1 21 14 17 16 17 24 4z m40
-30 c-4 -6 -1 -18 6 -26 10 -12 9 -13 -5 -8 -16 6 -21 25 -9 37 10 11 15 8 8
-3z m-312 -21 c4 -14 10 -18 19 -13 7 4 9 3 5 -2 -13 -13 -66 -11 -71 3 -3 7
1 13 9 13 8 0 15 5 15 10 0 19 18 10 23 -11z m212 4 c-2 -10 -4 -19 -4 -21 -1
-2 -6 0 -11 3 -8 5 -7 11 1 21 15 18 18 18 14 -3z m282 11 c-3 -3 -2 -17 4
-31 6 -16 6 -22 -1 -18 -6 3 -10 13 -10 22 0 13 -3 13 -16 3 -12 -11 -15 -11
-12 1 2 8 10 17 18 21 20 9 25 9 17 2z m-1690 -11 c-4 -3 -1 -13 5 -22 7 -9 8
-13 4 -9 -5 4 -15 3 -22 -3 -19 -16 -27 7 -8 25 8 9 18 16 21 16 4 0 3 -3 0
-7z m1839 -105 c17 -7 16 -8 -3 -4 -17 3 -23 -1 -23 -12 0 -25 20 -50 27 -34
7 18 44 16 37 -3 -4 -8 -12 -15 -18 -15 -21 0 -12 -63 9 -70 17 -6 17 -7 -3
-12 -12 -4 -20 -2 -16 3 9 14 -45 31 -64 19 -15 -8 -14 -9 6 -10 20 0 21 -2
10 -20 -15 -23 -38 -27 -38 -5 0 8 -6 15 -12 15 -9 0 -8 3 1 9 12 8 9 11 -12
16 -15 4 -24 11 -21 16 3 5 -2 9 -10 9 -9 0 -16 -4 -16 -10 0 -5 -10 -10 -21
-10 -18 0 -19 -3 -10 -14 9 -11 10 -20 1 -35 -6 -12 -13 -21 -16 -21 -3 0 -2
5 1 10 3 6 -3 10 -14 10 -13 0 -18 6 -16 18 1 9 8 16 14 15 6 -2 11 2 11 7 0
6 12 15 26 20 18 7 24 15 20 26 -8 21 24 70 35 52 6 -9 9 -8 15 5 3 9 12 17
19 17 8 0 17 5 21 12 5 7 2 9 -7 4 -8 -4 -3 1 11 13 22 18 26 18 31 4 3 -9 14
-20 25 -25z m-483 20 c-2 -5 2 -8 9 -8 9 0 9 -3 -2 -10 -12 -8 -12 -10 5 -10
11 0 26 -9 33 -21 8 -12 9 -18 3 -15 -7 5 -9 -7 -7 -34 3 -34 0 -40 -16 -40
-11 0 -16 5 -13 10 3 6 1 10 -5 10 -6 0 -9 4 -6 8 3 5 -1 9 -9 9 -8 0 -13 -2
-10 -5 8 -8 -16 -43 -26 -36 -12 7 -41 -15 -34 -26 2 -4 -11 0 -30 9 -23 10
-34 20 -30 30 5 12 3 12 -12 0 -12 -9 -10 -5 5 15 16 20 19 33 12 46 -6 11 -5
21 3 30 10 10 9 11 -3 6 -8 -4 -7 -1 3 7 14 11 15 16 5 21 -7 3 -3 3 9 1 12
-3 24 -2 26 2 3 4 25 8 50 8 25 0 43 -3 40 -7z m57 2 c0 -5 -5 -10 -11 -10 -5
0 -7 5 -4 10 3 6 8 10 11 10 2 0 4 -4 4 -10z m50 -4 c0 -3 -4 -8 -10 -11 -5
-3 -10 -1 -10 4 0 6 5 11 10 11 6 0 10 -2 10 -4z m215 -27 c-4 -5 -12 -9 -18
-8 -9 0 -8 2 1 6 6 2 9 10 6 15 -4 7 -2 8 5 4 6 -4 9 -12 6 -17z m-1575 0 c0
-4 -11 -9 -25 -11 -15 -3 -25 -1 -25 6 0 6 11 11 25 11 14 0 25 -3 25 -6z
m1398 -28 c25 -21 29 -49 7 -57 -8 -4 -15 -12 -15 -20 0 -19 -26 -18 -34 2 -4
9 -2 22 4 29 8 10 6 16 -7 24 -10 6 -12 11 -5 11 6 0 11 3 11 8 -5 27 10 29
39 3z m-73 -99 c-3 -3 -15 -7 -28 -9 -21 -4 -21 -3 -2 11 18 13 44 12 30 -2z
m-90 -16 c13 -9 28 -11 47 -5 15 4 28 7 29 6 6 -16 5 -37 -2 -37 -6 0 -7 -5
-4 -10 4 -6 3 -10 -2 -9 -4 1 -17 1 -28 0 -17 -1 -18 -3 -5 -11 12 -8 11 -10
-8 -10 -13 0 -25 8 -29 18 -3 9 -13 25 -21 35 -13 14 -13 17 -1 18 8 0 6 4 -6
9 -14 6 -16 9 -4 9 8 1 24 -5 34 -13z m365 -1 c-5 -7 -9 -14 -7 -16 1 -2 0 -3
-2 -1 -11 7 -7 29 5 29 9 0 11 -4 4 -12z m27 -17 c-3 -8 -6 -5 -6 6 -1 11 2
17 5 13 3 -3 4 -12 1 -19z m138 2 c-3 -5 -1 -10 4 -10 6 0 11 -7 11 -15 0 -20
-16 -19 -24 1 -6 15 0 34 10 34 3 0 2 -4 -1 -10z m-382 -13 c7 -19 -4 -33 -33
-42 -28 -9 -31 -8 -27 3 1 4 6 6 10 4 5 -1 6 2 3 7 -10 16 5 41 24 41 10 0 20
-6 23 -13z m-249 -70 c9 -4 18 -2 21 3 4 6 14 10 23 9 9 0 12 -3 6 -5 -9 -4
-9 -13 0 -35 9 -26 8 -32 -7 -40 -10 -6 -14 -15 -10 -22 4 -7 -1 -6 -10 2 -15
12 -17 12 -11 -3 4 -11 1 -16 -10 -16 -12 0 -16 10 -16 40 0 28 -5 42 -19 49
-12 7 -17 20 -16 38 3 47 6 49 20 17 8 -17 21 -34 29 -37z m315 32 c-12 -7
-12 -9 0 -9 8 0 12 -3 8 -6 -14 -14 -26 8 -14 27 7 11 14 14 16 8 2 -6 -3 -15
-10 -20z m814 -16 c4 -18 2 -35 -3 -38 -11 -7 -34 61 -25 76 10 15 21 0 28
-38z m-1060 10 c-7 -2 -19 -2 -25 0 -7 3 -2 5 12 5 14 0 19 -2 13 -5z m-938
-31 c-3 -3 -11 0 -18 7 -9 10 -8 11 6 5 10 -3 15 -9 12 -12z m1128 -6 c-3 -4
1 -12 8 -17 19 -12 32 -11 24 1 -4 6 2 7 17 1 13 -4 25 -16 27 -26 2 -13 -1
-16 -14 -12 -9 4 -14 3 -10 -3 3 -6 -1 -11 -9 -11 -9 -1 -22 -2 -28 -3 -26 -4
-46 13 -41 34 3 11 1 26 -5 33 -8 9 -4 12 13 12 13 0 21 -4 18 -9z m-462 -49
c-6 -8 -7 -18 -3 -22 4 -5 1 -5 -6 -1 -10 6 -10 11 -1 22 6 8 14 14 16 14 3 0
0 -6 -6 -13z m139 2 c0 -5 6 -7 13 -3 6 4 9 4 5 -1 -4 -4 -2 -15 4 -24 10 -13
10 -14 -2 -3 -8 6 -22 12 -31 12 -10 0 -21 4 -24 10 -4 6 1 7 11 3 12 -4 15
-3 10 5 -4 7 -2 12 3 12 6 0 11 -5 11 -11z m242 -4 c14 0 20 -15 6 -15 -9 0
-22 8 -29 17 -12 15 -12 16 1 8 8 -6 18 -10 22 -10z m104 -78 c0 -13 -6 -24
-13 -24 -7 0 -13 4 -13 9 0 4 5 8 10 8 6 0 9 3 9 8 -2 10 0 22 4 22 2 0 3 -10
3 -23z m-282 -67 c7 0 13 -7 13 -15 0 -13 -3 -13 -19 2 -10 9 -18 21 -17 27 0
6 3 6 6 -1 2 -7 10 -13 17 -13z m1345 -591 c-16 -10 -23 -4 -14 10 3 6 11 8
17 5 6 -4 5 -9 -3 -15z m-1484 -159 c-3 -5 -1 -10 4 -10 6 0 11 -5 11 -11 0
-5 -4 -8 -9 -4 -5 3 -12 1 -16 -5 -3 -5 0 -10 8 -10 24 0 9 -34 -22 -53 -18
-10 -32 -13 -41 -7 -11 7 -7 10 15 11 l30 1 -29 7 c-17 3 -29 11 -27 16 5 20
35 45 53 45 10 0 17 3 17 8 -2 12 1 22 7 22 3 0 2 -4 -1 -10z m62 -22 c-3 -8
-6 -5 -6 6 -1 11 2 17 5 13 3 -3 4 -12 1 -19z m-4 -124 c-1 -5 3 -15 9 -21 8
-10 5 -13 -11 -13 -11 0 -21 5 -21 10 0 6 -4 10 -9 10 -12 0 -5 -38 10 -56 10
-12 9 -13 -6 -8 -13 5 -16 4 -10 -5 4 -8 -4 -6 -19 4 -32 21 -33 33 -4 44 12
4 17 10 12 13 -15 10 -47 -19 -41 -37 4 -8 2 -15 -3 -15 -6 0 -10 5 -10 11 0
8 -6 7 -17 -2 -11 -9 -9 -3 5 15 26 33 61 55 81 48 8 -3 11 0 7 6 -3 6 1 9 11
8 10 -2 17 -7 16 -12z m-553 -28 c-7 -7 -13 -7 -20 0 -6 6 -3 10 10 10 13 0
16 -4 10 -10z m380 -44 c0 -4 -9 -8 -21 -9 -17 -2 -18 1 -9 12 12 14 30 12 30
-3z m240 -17 c-7 -8 -17 -15 -23 -15 -6 0 -2 7 9 15 25 19 30 19 14 0z m-196
-32 c-10 -7 -24 -13 -32 -13 -7 0 -10 -5 -7 -11 4 -6 -2 -5 -13 2 -16 10 -18
16 -10 27 9 10 13 11 19 0 7 -10 9 -9 9 4 0 21 21 29 38 15 11 -9 11 -13 -4
-24z m-387 -58 c0 -8 -3 -13 -5 -10 -3 3 -15 -4 -26 -14 -15 -14 -26 -17 -36
-11 -12 8 -13 10 -1 10 8 0 11 3 7 7 -3 4 8 12 26 19 18 6 33 12 34 13 0 0 1
-6 1 -14z m-157 -10 c0 -19 -6 -19 -14 0 -3 8 -1 15 4 15 6 0 10 -7 10 -15z
m345 -15 c3 -5 -1 -10 -10 -10 -9 0 -13 5 -10 10 3 6 8 10 10 10 2 0 7 -4 10
-10z"/>
<path d="M5475 13809 c-4 -6 -5 -12 -2 -15 2 -3 7 2 10 11 7 17 1 20 -8 4z"/>
<path d="M7455 13569 c-4 -6 -4 -13 0 -17 4 -4 10 -1 12 6 3 6 10 9 15 6 7 -4
8 -2 4 4 -9 15 -23 15 -31 1z"/>
<path d="M6045 13179 c-49 -5 -103 -14 -120 -20 -54 -19 -266 -79 -281 -79
-22 0 -121 -47 -157 -74 -19 -14 -41 -26 -49 -26 -16 0 -174 -92 -197 -115
-13 -12 -12 -17 4 -35 24 -27 41 -25 72 6 35 35 83 55 168 71 260 49 301 47
365 -17 10 -10 27 -16 37 -14 21 6 114 -69 110 -89 -4 -20 -80 -49 -126 -48
-24 0 -52 -4 -63 -10 -11 -6 -29 -13 -41 -15 -12 -3 -26 -6 -32 -8 -5 -1 -20
-7 -32 -14 -12 -7 -27 -12 -33 -12 -7 0 -26 -6 -43 -14 -18 -8 -41 -16 -52
-19 -11 -3 -40 -13 -65 -23 -25 -9 -67 -18 -95 -20 -76 -5 -243 -74 -230 -95
4 -5 8 -21 11 -35 3 -14 12 -37 22 -52 12 -19 13 -27 4 -30 -15 -5 -16 -29 0
-38 7 -4 82 -9 168 -10 183 -3 292 -17 329 -42 33 -23 105 -52 130 -52 21 0
36 -26 20 -36 -5 -3 -39 -6 -75 -7 -36 0 -67 -4 -70 -8 -2 -4 -19 -5 -37 -2
-23 3 -37 0 -46 -11 -7 -9 -24 -16 -37 -16 -66 0 -12 -50 112 -103 45 -19 90
-40 100 -46 36 -20 132 -41 186 -41 63 0 184 38 240 75 21 14 40 25 44 25 3 0
18 8 32 18 15 10 53 29 85 41 60 25 143 75 165 101 7 8 18 27 23 43 6 15 15
27 19 27 15 0 40 109 30 130 -7 14 -6 87 1 102 5 10 5 27 -1 42 -6 16 -6 27 1
31 5 4 7 10 4 15 -3 5 -1 11 4 14 5 4 7 18 5 33 -3 14 3 42 12 61 14 29 14 44
5 91 -15 80 -22 130 -23 174 -2 35 -4 38 -25 34 -13 -2 -26 -1 -29 4 -3 5 -22
16 -42 25 -20 10 -44 26 -52 36 -8 10 -24 20 -35 22 -11 3 -40 9 -65 16 -82
21 -135 31 -175 34 -22 2 -51 6 -65 8 -14 3 -65 2 -115 -3z m119 -725 c27 -28
29 -34 26 -74 -3 -35 -18 -50 -51 -50 -28 0 -31 4 -31 35 0 125 7 137 56 89z
m-414 -39 c0 -40 -20 -47 -52 -18 -17 15 -17 17 -2 35 10 10 25 18 36 18 14 0
18 -8 18 -35z"/>
<path d="M7593 11523 c-3 -10 -8 -22 -11 -27 -3 -5 0 -6 6 -2 7 4 12 13 12 21
0 7 6 16 13 18 9 4 9 6 -1 6 -7 1 -15 -7 -19 -16z"/>
<path d="M7840 11525 c0 -8 5 -15 10 -15 6 0 10 7 10 15 0 8 -4 15 -10 15 -5
0 -10 -7 -10 -15z"/>
<path d="M2005 5750 c-3 -5 -1 -10 4 -10 6 0 11 5 11 10 0 6 -2 10 -4 10 -3 0
-8 -4 -11 -10z"/>
<path d="M1944 5689 c-3 -6 -1 -16 5 -22 8 -8 11 -5 11 11 0 24 -5 28 -16 11z"/>
<path d="M1979 5538 c-7 -30 -5 -36 10 -34 19 3 22 27 4 34 -7 2 -13 2 -14 0z"/>
<path d="M2011 4517 c-8 -10 -7 -14 2 -14 8 0 14 6 14 14 0 7 -1 13 -2 13 -2
0 -8 -6 -14 -13z"/>
<path d="M2106 4476 c7 -19 20 -21 30 -3 4 6 4 9 -1 5 -4 -4 -14 -3 -22 4 -11
8 -12 7 -7 -6z"/>
<path d="M1952 4450 c-19 -32 -15 -59 8 -53 15 4 19 12 16 34 -4 38 -9 42 -24
19z"/>
<path d="M2290 4436 c0 -2 8 -10 18 -17 15 -13 16 -12 3 4 -13 16 -21 21 -21
13z"/>
<path d="M1763 4405 c0 -8 4 -12 9 -9 4 3 8 9 8 15 0 5 -4 9 -8 9 -5 0 -9 -7
-9 -15z"/>
<path d="M2355 4400 c-3 -5 1 -10 10 -10 9 0 13 5 10 10 -3 6 -8 10 -10 10 -2
0 -7 -4 -10 -10z"/>
<path d="M2298 4393 c7 -3 16 -2 19 1 4 3 -2 6 -13 5 -11 0 -14 -3 -6 -6z"/>
<path d="M2177 4373 c3 -7 8 -13 12 -13 4 0 8 6 8 13 0 8 -6 14 -13 14 -7 0
-10 -6 -7 -14z"/>
<path d="M1943 4316 c-22 -21 -22 -21 -3 -51 18 -27 18 -51 0 -40 -4 3 -11 -3
-14 -12 -7 -17 11 -35 29 -29 6 1 10 12 10 23 0 11 6 27 13 35 10 12 11 54 1
66 -1 1 -2 6 -3 11 -2 19 -12 18 -33 -3z"/>
<path d="M2177 4304 c-4 -4 -7 -14 -7 -23 0 -11 3 -12 11 -4 6 6 10 16 7 23
-2 6 -7 8 -11 4z"/>
<path d="M2220 4263 c1 -16 29 -45 38 -39 18 11 6 41 -16 44 -12 2 -22 0 -22
-5z"/>
<path d="M2416 4211 c-5 -8 -3 -17 5 -22 17 -11 39 -12 23 -1 -6 4 -13 14 -16
22 -3 11 -6 11 -12 1z"/>
<path d="M2190 4195 c0 -8 9 -19 20 -25 24 -13 27 2 4 24 -19 20 -24 20 -24 1z"/>
<path d="M2235 4199 c-4 -6 -5 -13 -2 -16 7 -7 27 6 27 18 0 12 -17 12 -25 -2z"/>
<path d="M2435 4161 c-3 -6 -11 -9 -16 -6 -5 4 -6 -2 -2 -11 4 -12 8 -14 11
-6 3 10 7 10 17 2 10 -8 13 -7 11 4 -3 22 -13 29 -21 17z"/>
<path d="M2258 4143 c7 -3 16 -2 19 1 4 3 -2 6 -13 5 -11 0 -14 -3 -6 -6z"/>
<path d="M2090 4115 c-10 -12 -10 -15 2 -15 8 0 15 7 15 15 0 8 -1 15 -2 15
-2 0 -8 -7 -15 -15z"/>
<path d="M2363 4108 c9 -26 -20 -38 -51 -22 -31 16 -42 11 -37 -16 2 -11 -1
-20 -7 -20 -7 0 -7 -4 1 -13 6 -8 8 -17 4 -20 -3 -4 2 -9 11 -13 9 -3 14 -10
11 -14 -3 -4 4 -10 15 -13 11 -3 19 -2 19 2 -1 3 2 16 6 29 8 24 21 29 27 10
6 -16 35 -18 35 -2 0 7 -3 12 -6 10 -3 -2 -12 2 -19 10 -7 8 -9 14 -5 14 5 0
13 8 19 18 8 13 7 21 -9 37 -17 17 -19 17 -14 3z"/>
<path d="M2418 4013 c7 -3 16 -2 19 1 4 3 -2 6 -13 5 -11 0 -14 -3 -6 -6z"/>
<path d="M2003 3965 c0 -8 4 -12 9 -9 5 3 6 10 3 15 -9 13 -12 11 -12 -6z"/>
<path d="M2296 3944 c-7 -18 19 -48 34 -39 5 3 7 0 5 -7 -4 -10 5 -14 32 -15
27 0 32 2 18 7 -11 4 -20 13 -21 21 0 8 -2 22 -2 32 -2 22 -57 24 -66 1z"/>
<path d="M1975 3938 c-4 -10 -12 -15 -19 -11 -8 4 -8 3 0 -6 19 -20 43 -10 34
14 -7 18 -8 19 -15 3z"/>
<path d="M2360 3861 c0 -6 4 -13 10 -16 6 -3 7 1 4 9 -7 18 -14 21 -14 7z"/>
<path d="M2251 3827 c-8 -10 -7 -14 2 -14 8 0 14 6 14 14 0 7 -1 13 -2 13 -2
0 -8 -6 -14 -13z"/>
<path d="M3150 3791 c0 -5 5 -13 10 -16 6 -3 10 -2 10 4 0 5 -4 13 -10 16 -5
3 -10 2 -10 -4z"/>
<path d="M2335 3771 c-3 -5 -2 -12 3 -15 5 -3 9 1 9 9 0 17 -3 19 -12 6z"/>
<path d="M2436 3751 c-4 -5 -2 -12 3 -15 5 -4 12 -2 15 3 4 5 2 12 -3 15 -5 4
-12 2 -15 -3z"/>
<path d="M2480 3741 c0 -6 4 -13 10 -16 6 -3 7 1 4 9 -7 18 -14 21 -14 7z"/>
<path d="M2388 3709 c-7 -20 1 -39 15 -33 8 3 13 -10 14 -35 1 -33 -2 -39 -16
-36 -10 2 -18 -2 -18 -8 0 -7 13 -12 28 -13 23 -1 28 3 26 20 -2 17 3 21 26
19 28 -2 34 11 18 36 -5 8 -16 11 -25 8 -8 -3 -18 -1 -22 5 -5 7 -2 8 7 3 8
-5 11 -4 6 1 -5 5 -13 9 -17 9 -5 0 -15 9 -23 19 -11 15 -15 16 -19 5z"/>
<path d="M2460 3710 c-9 -6 -10 -10 -3 -10 6 0 15 5 18 10 8 12 4 12 -15 0z"/>
<path d="M2320 3680 c-9 -6 -10 -10 -3 -10 6 0 15 5 18 10 8 12 4 12 -15 0z"/>
<path d="M2265 3651 c3 -2 0 -10 -6 -17 -7 -8 -7 -14 1 -19 5 -3 10 1 10 9 0
8 8 19 18 25 15 9 14 10 -5 8 -12 0 -20 -3 -18 -6z"/>
<path d="M2303 3595 c0 -6 6 -12 12 -12 6 0 12 6 12 12 0 6 -6 12 -12 12 -6 0
-12 -6 -12 -12z"/>
<path d="M2470 3466 c0 -2 7 -7 16 -10 8 -3 12 -2 9 4 -6 10 -25 14 -25 6z"/>
<path d="M2480 3421 c5 -11 10 -29 10 -40 0 -12 4 -21 9 -21 5 0 7 9 4 20 -3
11 0 20 6 20 9 0 9 5 1 20 -6 11 -17 20 -26 20 -11 0 -12 -4 -4 -19z"/>
<path d="M2557 3325 c3 -14 10 -25 15 -25 13 0 6 43 -8 47 -7 2 -10 -6 -7 -22z"/>
<path d="M3366 3244 c-8 -21 -8 -26 3 -20 5 3 12 -1 15 -10 3 -8 10 -13 15 -9
5 3 12 1 16 -5 3 -5 14 -10 23 -10 15 0 15 2 2 10 -13 9 -13 10 0 10 9 0 11 3
4 8 -6 4 -13 15 -17 25 -7 19 -27 23 -27 6 0 -8 -4 -8 -14 0 -11 9 -15 8 -20
-5z"/>
<path d="M2726 3088 c3 -4 9 -8 15 -8 5 0 9 4 9 8 0 5 -7 9 -15 9 -8 0 -12 -4
-9 -9z"/>
<path d="M3553 2973 c4 -6 3 -13 -2 -15 -5 -1 -3 -9 5 -16 12 -11 13 -9 11 7
-2 11 -7 24 -12 28 -4 5 -5 3 -2 -4z"/>
<path d="M3665 2800 c3 -5 8 -10 11 -10 2 0 4 5 4 10 0 6 -5 10 -11 10 -5 0
-7 -4 -4 -10z"/>
<path d="M3725 2790 c3 -5 8 -10 11 -10 2 0 4 5 4 10 0 6 -5 10 -11 10 -5 0
-7 -4 -4 -10z"/>
<path d="M3006 2675 c-3 -8 -1 -15 4 -15 6 0 10 7 10 15 0 8 -2 15 -4 15 -2 0
-6 -7 -10 -15z"/>
<path d="M3665 2611 c-2 -5 4 -11 15 -14 11 -3 20 -2 20 3 0 12 -28 21 -35 11z"/>
<path d="M3520 2536 c0 -2 9 -6 20 -9 11 -3 18 -1 14 4 -5 9 -34 13 -34 5z"/>
<path d="M3485 2384 c0 -27 41 -43 59 -23 7 8 7 10 0 6 -6 -3 -18 3 -27 13
-11 13 -12 20 -4 23 7 3 3 5 -8 4 -14 -1 -20 -8 -20 -23z"/>
<path d="M3501 2316 c-13 -23 -9 -46 9 -46 4 0 6 10 2 22 -3 13 -1 19 5 15 7
-5 9 0 6 13 -7 25 -7 25 -22 -4z"/>
<path d="M3420 2259 c0 -5 5 -7 10 -4 6 3 10 8 10 11 0 2 -4 4 -10 4 -5 0 -10
-5 -10 -11z"/>
<path d="M3356 2243 c-3 -7 -1 -13 5 -13 6 0 9 -6 6 -13 -3 -7 1 -24 8 -36
l12 -24 0 29 c0 16 3 38 6 49 4 16 0 21 -14 21 -10 0 -21 -6 -23 -13z"/>
<path d="M3553 2232 c-7 -13 -8 -23 -1 -33 8 -12 9 -12 5 1 -2 8 2 23 11 33 8
9 11 17 6 17 -5 0 -14 -8 -21 -18z"/>
<path d="M3497 2195 c3 -8 9 -12 14 -9 12 7 11 11 -5 17 -10 4 -13 1 -9 -8z"/>
<path d="M3444 2163 c4 -7 3 -13 -3 -13 -5 0 -9 -9 -8 -20 2 -23 27 -27 27 -4
0 8 3 13 8 11 4 -3 16 -1 27 4 18 7 17 8 -5 8 -15 1 -32 7 -39 14 -11 10 -13
10 -7 0z"/>
<path d="M3228 2153 c7 -3 16 -2 19 1 4 3 -2 6 -13 5 -11 0 -14 -3 -6 -6z"/>
<path d="M3530 2150 c-8 -5 -10 -10 -5 -10 6 0 17 5 25 10 8 5 11 10 5 10 -5
0 -17 -5 -25 -10z"/>
<path d="M3346 2075 c-19 -14 -19 -16 12 -43 24 -22 29 -31 20 -40 -9 -9 -6
-11 10 -7 11 2 27 -4 34 -13 11 -14 11 -15 -5 -9 -11 4 -16 3 -12 -4 9 -14 28
-6 31 14 2 15 -14 22 -39 18 -5 -1 -6 3 -2 9 3 6 11 8 16 5 5 -4 9 -2 9 4 0 6
-11 13 -25 17 -25 6 -28 12 -28 47 0 9 0 17 -1 17 0 0 -10 -7 -20 -15z"/>
<path d="M3550 2040 c0 -6 7 -10 15 -10 8 0 15 2 15 4 0 2 -7 6 -15 10 -8 3
-15 1 -15 -4z"/>
<path d="M3435 1930 c3 -5 8 -10 11 -10 2 0 4 5 4 10 0 6 -5 10 -11 10 -5 0
-7 -4 -4 -10z"/>
<path d="M2893 2813 c-7 -2 -13 -9 -13 -14 0 -4 7 -5 17 -2 10 4 14 2 9 -5 -3
-6 -3 -13 2 -16 4 -2 8 6 8 20 0 25 -2 26 -23 17z"/>
<path d="M2846 2792 c-3 -5 1 -9 9 -9 8 0 12 4 9 9 -3 4 -7 8 -9 8 -2 0 -6 -4
-9 -8z"/>
<path d="M4645 2500 c-3 -5 -1 -10 4 -10 6 0 11 5 11 10 0 6 -2 10 -4 10 -3 0
-8 -4 -11 -10z"/>
<path d="M4665 2090 c3 -5 8 -10 11 -10 2 0 4 5 4 10 0 6 -5 10 -11 10 -5 0
-7 -4 -4 -10z"/>
<path d="M5036 1513 c-6 -14 -5 -15 5 -6 7 7 10 15 7 18 -3 3 -9 -2 -12 -12z"/>
<path d="M4585 1580 c3 -5 8 -10 11 -10 2 0 4 5 4 10 0 6 -5 10 -11 10 -5 0
-7 -4 -4 -10z"/>
<path d="M4621 1544 c0 -11 3 -14 6 -6 3 7 2 16 -1 19 -3 4 -6 -2 -5 -13z"/>
<path d="M4640 1540 c0 -6 7 -10 15 -10 8 0 15 2 15 4 0 2 -7 6 -15 10 -8 3
-15 1 -15 -4z"/>
<path d="M4829 1299 c0 -2 -2 -11 -4 -20 -1 -9 3 -16 10 -16 7 0 12 6 11 13
-2 13 -15 31 -17 23z"/>
<path d="M5330 7970 c0 -5 5 -10 11 -10 5 0 7 5 4 10 -3 6 -8 10 -11 10 -2 0
-4 -4 -4 -10z"/>
<path d="M5234 7825 c-8 -44 13 -79 61 -102 36 -17 46 -40 21 -49 -8 -3 -17
-12 -20 -20 -8 -20 40 -114 58 -114 7 0 18 18 25 39 10 35 9 44 -10 77 -11 21
-22 59 -23 87 -2 43 -7 53 -42 82 -21 19 -44 34 -51 35 -7 0 -15 -16 -19 -35z"/>
<path d="M4704 7595 c-10 -26 10 -39 37 -24 18 9 20 13 9 17 -8 3 -21 9 -27
14 -9 7 -15 5 -19 -7z"/>
<path d="M4991 7508 c-17 -88 -21 -99 -33 -92 -16 10 -1 -56 16 -75 8 -9 28
-24 45 -34 29 -17 31 -17 31 -1 0 10 -8 26 -17 36 -16 18 -15 18 27 3 54 -19
50 -20 50 13 0 32 -13 51 -54 76 -26 16 -28 22 -23 59 5 40 -5 77 -22 77 -5 0
-14 -28 -20 -62z"/>
<path d="M5400 7425 c-6 -15 -8 -31 -4 -34 4 -3 9 0 11 7 6 16 81 -68 108
-121 22 -45 45 -59 45 -29 0 11 -11 27 -25 36 -14 9 -25 24 -25 32 0 17 -58
102 -85 124 -12 10 -16 8 -25 -15z"/>
<path d="M4737 7418 c-13 -11 -15 -20 -8 -51 5 -21 12 -41 15 -45 14 -13 31
22 32 63 2 47 -8 55 -39 33z"/>
<path d="M5060 7271 c0 -11 5 -23 11 -27 6 -3 20 -26 31 -50 19 -44 31 -51 57
-35 11 7 11 15 0 47 -16 48 -36 70 -71 78 -23 5 -28 3 -28 -13z"/>
<path d="M5981 7214 c0 -11 3 -14 6 -6 3 7 2 16 -1 19 -3 4 -6 -2 -5 -13z"/>
<path d="M4756 7205 c4 -8 13 -15 21 -15 13 0 13 3 3 15 -7 8 -16 15 -21 15
-5 0 -6 -7 -3 -15z"/>
<path d="M5560 7192 c0 -19 12 -42 22 -42 14 0 5 43 -9 48 -7 2 -13 -1 -13 -6z"/>
<path d="M5610 7084 c0 -14 45 -104 52 -104 14 0 8 65 -8 88 -14 20 -44 31
-44 16z"/>
<path d="M5140 7066 c0 -20 28 -46 50 -46 15 0 14 4 -10 30 -31 33 -40 37 -40
16z"/>
<path d="M6780 7047 c0 -25 46 -81 60 -72 9 6 -6 61 -23 83 -15 20 -37 14 -37
-11z"/>
<path d="M6696 6806 c3 -9 11 -16 16 -16 13 0 5 23 -10 28 -7 2 -10 -2 -6 -12z"/>
<path d="M6740 6705 c0 -9 10 -35 22 -58 19 -36 23 -39 26 -20 3 22 -20 77
-38 88 -5 3 -10 -1 -10 -10z"/>
<path d="M7794 6376 c-3 -7 10 -47 30 -87 19 -41 41 -93 49 -116 8 -22 26 -62
41 -87 22 -38 32 -46 56 -46 36 0 41 27 10 55 -10 9 -25 34 -31 54 -6 20 -16
41 -20 47 -5 6 -7 18 -4 26 3 7 -10 35 -29 62 -19 27 -32 55 -29 66 5 20 0 24
-40 34 -19 5 -29 2 -33 -8z"/>
<path d="M4957 6238 c-5 -39 -3 -56 7 -67 12 -12 16 -8 26 28 9 36 9 47 -5 67
-8 13 -17 24 -19 24 -2 0 -6 -24 -9 -52z"/>
<path d="M4981 6018 c4 -71 9 -88 26 -88 11 0 13 6 8 23 -4 12 -10 43 -12 70
-7 64 -25 60 -22 -5z"/>
<path d="M7982 5998 c-18 -18 -16 -24 26 -86 21 -31 42 -65 45 -75 4 -10 12
-15 18 -11 20 12 4 100 -25 144 -27 41 -43 49 -64 28z"/>
<path d="M5012 5858 c-17 -17 -15 -64 4 -104 20 -41 50 -43 47 -4 -8 92 -27
132 -51 108z"/>
<path d="M5035 5600 c-15 -47 -10 -155 8 -181 17 -25 17 -28 1 -56 -15 -26
-16 -35 -5 -76 16 -54 44 -87 41 -47 -1 14 -1 27 0 30 6 17 10 272 5 307 -5
33 -11 43 -25 43 -10 0 -22 -9 -25 -20z"/>
<path d="M4860 5431 c0 -11 5 -23 10 -26 6 -3 10 3 10 14 0 11 -4 23 -10 26
-5 3 -10 -3 -10 -14z"/>
<path d="M7900 5376 c0 -8 5 -18 10 -21 6 -3 10 3 10 14 0 12 -4 21 -10 21 -5
0 -10 -6 -10 -14z"/>
<path d="M4866 5322 c-2 -4 -1 -14 5 -22 7 -12 9 -10 9 8 0 23 -5 28 -14 14z"/>
<path d="M5075 5073 c-11 -62 -14 -124 -6 -145 4 -12 3 -40 -2 -63 -8 -34 -6
-52 13 -103 27 -75 49 -82 51 -17 1 25 2 51 3 58 1 6 -4 34 -10 60 -10 39 -10
56 1 87 8 24 11 60 8 99 -5 55 -8 61 -28 61 -18 0 -24 -7 -30 -37z"/>
<path d="M4860 5061 c0 -11 -5 -23 -12 -27 -7 -5 -8 -2 -3 7 5 8 4 11 0 6 -5
-4 -9 -30 -10 -58 -1 -51 -1 -51 17 -27 10 13 23 38 29 55 9 27 8 36 -5 49
-15 14 -16 14 -16 -5z"/>
<path d="M8110 4693 c0 -30 17 -73 30 -73 16 0 12 27 -10 62 -17 28 -20 30
-20 11z"/>
<path d="M5082 4613 c-5 -10 -14 -38 -21 -63 -7 -25 -17 -61 -23 -82 -15 -52
-4 -84 32 -97 34 -11 33 -12 58 69 52 163 52 167 16 180 -37 14 -52 12 -62 -7z"/>
<path d="M8142 4590 c0 -14 2 -19 5 -12 2 6 2 18 0 25 -3 6 -5 1 -5 -13z"/>
<path d="M5644 4565 c-3 -14 -5 -28 -2 -30 7 -8 26 10 30 29 5 29 -20 31 -28
1z"/>
<path d="M8151 4506 c-8 -10 -9 -16 -1 -21 5 -3 13 1 16 10 9 22 -1 29 -15 11z"/>
<path d="M5074 4325 c-3 -8 -3 -19 1 -25 11 -18 25 -11 25 15 0 27 -17 34 -26
10z"/>
<path d="M5667 4334 c-4 -4 -7 -14 -7 -23 0 -11 3 -12 11 -4 6 6 10 16 7 23
-2 6 -7 8 -11 4z"/>
<path d="M5035 4199 c-4 -11 -4 -51 0 -89 4 -39 2 -98 -5 -141 -8 -53 -9 -82
-1 -101 13 -34 39 -37 45 -5 31 145 33 194 11 236 -8 16 -17 47 -21 70 -8 48
-20 60 -29 30z"/>
<path d="M5675 4046 c-23 -16 -12 -81 12 -72 8 3 17 6 19 6 8 0 4 69 -5 74 -4
3 -16 0 -26 -8z"/>
<path d="M5680 3830 c0 -23 22 -27 39 -7 13 16 5 27 -21 27 -11 0 -18 -7 -18
-20z"/>
<path d="M8407 3828 c-2 -7 0 -24 5 -38 5 -13 6 -46 3 -73 -4 -29 -2 -59 5
-77 9 -23 9 -33 -3 -52 -12 -19 -12 -34 -3 -90 13 -71 22 -90 35 -70 8 13 6
64 -5 212 -2 36 -4 95 -4 133 1 53 -2 67 -14 67 -8 0 -16 -6 -19 -12z"/>
<path d="M5686 3764 c-29 -28 -16 -82 20 -80 27 1 30 8 10 25 -7 6 -12 25 -11
41 3 35 2 35 -19 14z"/>
<path d="M5666 3550 c-10 -66 13 -123 28 -67 10 38 7 84 -8 96 -11 9 -15 4
-20 -29z"/>
<path d="M7810 3364 c0 -8 5 -12 10 -9 6 3 10 10 10 16 0 5 -4 9 -10 9 -5 0
-10 -7 -10 -16z"/>
<path d="M8408 3256 c-7 -39 -4 -55 8 -44 3 3 4 23 2 44 l-3 39 -7 -39z"/>
<path d="M7796 3265 c-9 -24 -7 -45 3 -45 12 0 22 43 12 53 -5 5 -11 1 -15 -8z"/>
<path d="M8007 3138 c-5 -17 12 -68 24 -68 10 0 12 40 3 64 -7 19 -21 21 -27
4z"/>
<path d="M5765 3120 c-3 -5 -2 -10 4 -10 5 0 13 5 16 10 3 6 2 10 -4 10 -5 0
-13 -4 -16 -10z"/>
<path d="M8390 3081 c-11 -21 -18 -106 -10 -115 3 -2 14 -6 25 -8 32 -5 47 38
31 92 -15 50 -30 60 -46 31z"/>
<path d="M5760 3013 c-26 -21 -33 -24 -40 -12 -8 11 -10 11 -14 -1 -12 -40 -4
-49 42 -45 55 5 77 24 68 59 -8 33 -17 33 -56 -1z"/>
<path d="M5750 2888 c-11 -18 -20 -36 -20 -40 0 -5 -7 -8 -15 -8 -9 0 -15 -9
-15 -24 0 -33 17 -43 23 -14 3 20 5 19 12 -10 10 -41 17 -45 49 -31 27 13 34
33 16 44 -6 4 -9 29 -8 57 4 62 -13 73 -42 26z"/>
<path d="M7793 2908 c-14 -19 -33 -91 -33 -127 0 -40 24 -41 45 -1 26 49 15
164 -12 128z"/>
<path d="M7090 2878 c-1 -2 -3 -26 -5 -54 -4 -58 7 -86 26 -67 10 10 10 21 -1
52 -7 21 -10 44 -6 49 3 6 2 13 -4 17 -5 3 -10 5 -10 3z"/>
<path d="M8356 2826 c-3 -13 -9 -31 -12 -40 -4 -10 -1 -16 9 -16 17 0 27 21
27 56 0 31 -16 31 -24 0z"/>
<path d="M8720 2761 c-22 -45 -25 -61 -10 -61 19 0 50 40 50 64 0 41 -18 39
-40 -3z"/>
<path d="M5764 2669 c-10 -13 -21 -58 -28 -114 -3 -23 33 -55 62 -55 33 0 38
81 8 119 -6 8 -16 25 -21 39 -9 20 -13 22 -21 11z"/>
<path d="M8300 2638 c-23 -38 -27 -73 -7 -62 31 18 57 50 57 71 0 34 -27 29
-50 -9z"/>
<path d="M7747 2654 c-11 -11 -8 -92 3 -99 10 -6 30 34 30 59 0 18 -24 48 -33
40z"/>
<path d="M7096 2618 c-15 -72 -14 -127 0 -139 23 -19 45 -1 59 49 11 35 10 47
-3 77 -19 40 -49 47 -56 13z"/>
<path d="M8353 2539 c-19 -19 -1 -58 56 -121 32 -35 60 -71 64 -80 4 -11 12
-15 23 -11 14 5 15 15 10 62 -4 31 -13 65 -22 76 -8 11 -24 35 -35 53 -17 25
-28 32 -53 32 -18 0 -37 -5 -43 -11z"/>
<path d="M8655 2500 c-3 -5 -1 -10 4 -10 6 0 11 5 11 10 0 6 -2 10 -4 10 -3 0
-8 -4 -11 -10z"/>
<path d="M6420 2440 c0 -16 5 -30 10 -30 6 0 19 -20 30 -45 21 -48 40 -59 40
-22 0 23 -59 126 -72 127 -5 0 -8 -13 -8 -30z"/>
<path d="M7710 2450 c0 -5 5 -10 10 -10 6 0 10 5 10 10 0 6 -4 10 -10 10 -5 0
-10 -4 -10 -10z"/>
<path d="M5767 2443 c-16 -4 -18 -11 -12 -41 11 -60 46 -143 58 -139 14 4 21
105 12 155 -6 32 -15 36 -58 25z"/>
<path d="M7097 2423 c-14 -22 -29 -135 -20 -144 17 -17 46 41 51 99 4 42 2 52
-11 52 -9 0 -18 -3 -20 -7z"/>
<path d="M7982 2371 c-11 -25 -8 -41 24 -140 32 -99 53 -135 70 -118 3 3 -2
29 -10 58 -9 29 -16 67 -16 85 0 20 -7 38 -18 46 -30 22 -35 38 -16 52 10 8
15 20 11 30 -10 25 -31 19 -45 -13z"/>
<path d="M8808 2373 c5 -21 7 -23 10 -9 2 10 0 22 -6 28 -6 6 -7 0 -4 -19z"/>
<path d="M5698 2374 c-9 -8 3 -116 13 -130 4 -5 25 -8 45 -6 20 3 32 7 28 11
-5 3 -22 31 -38 61 -33 64 -40 73 -48 64z"/>
<path d="M5360 2336 c0 -8 5 -18 10 -21 6 -3 10 1 10 9 0 8 -4 18 -10 21 -5 3
-10 -1 -10 -9z"/>
<path d="M6463 2273 c-25 -5 -29 -13 -12 -30 7 -7 3 -16 -15 -31 -25 -19 -27
-52 -4 -52 5 0 7 4 3 9 -3 5 6 18 19 28 13 10 27 33 31 51 3 18 5 31 3 31 -2
-1 -13 -4 -25 -6z"/>
<path d="M7658 2233 c-5 -34 0 -53 13 -53 11 0 12 50 0 69 -6 9 -10 5 -13 -16z"/>
<path d="M8900 2250 c0 -12 40 -34 47 -26 9 8 -17 36 -33 36 -8 0 -14 -4 -14
-10z"/>
<path d="M8543 2229 c-16 -20 -5 -149 13 -149 13 0 21 44 14 75 -1 6 -5 28 -8
49 -6 31 -9 36 -19 25z"/>
<path d="M7058 2189 c-26 -14 -50 -109 -28 -109 23 0 60 50 60 79 0 35 -9 43
-32 30z"/>
<path d="M8923 2150 c6 -11 15 -20 19 -20 12 0 -3 28 -18 34 -11 4 -12 2 -1
-14z"/>
<path d="M6487 2153 c-10 -10 -8 -43 2 -43 9 0 21 24 21 41 0 11 -14 12 -23 2z"/>
<path d="M6484 2044 c-5 -26 -2 -40 9 -51 14 -15 16 -14 23 10 7 31 -2 77 -16
77 -5 0 -12 -16 -16 -36z"/>
<path d="M7630 2043 c0 -29 12 -63 21 -63 10 0 12 41 3 64 -8 21 -24 20 -24
-1z"/>
<path d="M8568 2043 c-18 -5 -23 -29 -10 -49 4 -6 24 -17 44 -23 20 -7 39 -17
41 -24 2 -7 7 -9 11 -6 10 9 -43 109 -57 108 -7 -1 -20 -3 -29 -6z"/>
<path d="M6386 2008 c-22 -31 -20 -53 7 -66 36 -18 62 -19 58 -2 -2 8 -6 32
-8 53 -7 43 -32 50 -57 15z"/>
<path d="M6985 2009 c-8 -23 7 -45 24 -35 6 4 11 18 11 32 0 30 -26 32 -35 3z"/>
<path d="M8097 1968 c22 -77 41 -110 61 -106 30 6 24 36 -19 98 -24 33 -46 60
-50 60 -5 0 -1 -24 8 -52z"/>
<path d="M7475 1935 c4 -16 13 -76 19 -132 6 -56 17 -108 24 -115 6 -6 12 -22
12 -34 0 -12 7 -28 16 -35 15 -12 16 -8 9 51 -4 36 -14 77 -21 92 -8 15 -14
35 -14 45 0 31 -30 137 -42 148 -7 7 -8 1 -3 -20z"/>
<path d="M8580 1910 c-7 -4 -9 -13 -6 -19 10 -16 46 -14 46 3 0 17 -23 27 -40
16z"/>
<path d="M6412 1880 c-26 -24 -39 -85 -23 -104 10 -11 7 -25 -13 -65 -14 -27
-22 -52 -17 -55 17 -11 71 16 76 37 12 52 12 73 -2 89 -14 15 -13 22 0 62 18
52 10 65 -21 36z"/>
<path d="M8162 1833 c-19 -34 30 -143 65 -143 29 0 6 104 -31 139 -23 22 -25
22 -34 4z"/>
<path d="M6851 1808 c-5 -13 -15 -45 -23 -72 -7 -27 -19 -51 -25 -53 -14 -6
-17 -42 -5 -58 10 -15 63 -55 72 -55 12 0 19 39 8 46 -5 3 -15 0 -21 -8 -7 -7
-11 -11 -10 -9 2 2 -2 10 -8 18 -9 10 -7 13 10 13 18 0 21 6 21 43 1 23 3 68
7 100 6 60 -9 79 -26 35z"/>
<path d="M6040 1765 c0 -27 9 -32 27 -14 14 14 6 39 -13 39 -8 0 -14 -10 -14
-25z"/>
<path d="M7690 1766 c0 -14 5 -28 10 -31 6 -3 10 5 10 19 0 14 -4 28 -10 31
-6 3 -10 -5 -10 -19z"/>
<path d="M6277 1693 c-13 -13 -7 -32 8 -27 8 4 15 12 15 20 0 15 -12 19 -23 7z"/>
<path d="M5937 1653 c-14 -13 -6 -23 18 -23 16 0 25 6 25 15 0 15 -31 21 -43
8z"/>
<path d="M6315 1605 c-37 -39 -55 -106 -35 -130 15 -18 6 -45 -15 -45 -12 0
-14 -6 -9 -27 4 -16 8 -29 8 -30 1 -1 19 2 39 8 50 14 70 47 73 122 1 34 5 75
9 91 6 20 4 31 -6 37 -22 14 -30 11 -64 -26z"/>
<path d="M8287 1583 c-3 -5 -2 -15 4 -23 5 -8 9 -34 9 -57 0 -32 4 -43 15 -43
22 0 19 68 -4 103 -10 16 -21 25 -24 20z"/>
<path d="M6021 1552 c-12 -23 4 -52 29 -52 22 0 26 21 10 51 -13 24 -26 24
-39 1z"/>
<path d="M6210 1551 c0 -12 5 -21 10 -21 6 0 10 6 10 14 0 8 -4 18 -10 21 -5
3 -10 -3 -10 -14z"/>
<path d="M6876 1473 c-15 -39 -16 -124 -2 -158 17 -41 36 -46 36 -10 0 16 6
25 15 25 20 0 20 53 -1 113 -16 48 -37 61 -48 30z"/>
<path d="M7556 1462 c-3 -5 4 -24 15 -43 10 -19 24 -46 30 -61 11 -28 20 -34
32 -22 8 8 -18 79 -40 109 -19 26 -29 30 -37 17z"/>
<path d="M6290 1317 c0 -8 -7 -28 -16 -45 -11 -24 -13 -36 -4 -52 6 -11 8 -20
6 -20 -3 0 1 -18 9 -40 13 -36 12 -44 -4 -81 -17 -38 -18 -45 -5 -84 8 -23 27
-54 43 -69 23 -22 30 -24 45 -13 26 19 31 61 26 212 0 22 0 58 2 80 1 24 -5
56 -17 80 -16 33 -26 41 -52 43 -23 2 -33 -1 -33 -11z"/>
<path d="M6188 1255 c-1 -30 1 -55 5 -55 5 0 5 -6 1 -12 -6 -10 -5 -10 8 -1
21 18 25 123 4 123 -10 0 -15 -16 -18 -55z"/>
<path d="M8371 1270 c26 -35 49 -49 49 -32 0 5 -17 22 -37 38 l-38 28 26 -34z"/>
<path d="M6915 1261 c-7 -12 42 -121 55 -121 15 0 12 26 -7 81 -17 46 -34 61
-48 40z"/>
<path d="M6049 1237 c-13 -10 -14 -19 -5 -57 16 -67 40 -61 44 13 3 60 -6 70
-39 44z"/>
<path d="M6886 1152 c-3 -4 -3 -17 -1 -28 2 -10 4 -26 5 -34 1 -10 3 -11 7 -2
2 6 11 12 19 12 21 0 17 38 -5 50 -11 5 -22 6 -25 2z"/>
<path d="M8440 1115 c0 -19 27 -73 48 -97 42 -48 44 13 2 70 -31 44 -50 53
-50 27z"/>
<path d="M6059 983 c-2 -43 2 -67 13 -80 19 -23 26 -14 18 23 -5 20 -4 47 1
60 7 20 5 24 -11 24 -15 0 -20 -7 -21 -27z"/>
<path d="M7684 995 c-8 -20 2 -74 17 -92 21 -24 29 -14 29 37 0 39 -4 51 -20
60 -16 9 -22 8 -26 -5z"/>
<path d="M5966 991 c-8 -12 3 -41 15 -41 12 0 12 37 0 45 -5 3 -12 1 -15 -4z"/>
<path d="M6230 921 c0 -11 11 -28 25 -39 14 -11 25 -30 26 -43 0 -13 4 -32 8
-42 6 -17 8 -17 18 5 26 53 23 77 -17 108 -44 35 -60 38 -60 11z"/>
<path d="M9082 891 c2 -19 9 -37 17 -39 11 -4 12 2 7 24 -11 45 -28 55 -24 15z"/>
<path d="M6334 759 c-14 -54 -25 -75 -44 -87 -14 -9 -27 -17 -29 -18 -2 -2 6
-18 18 -37 21 -34 21 -50 3 -98 -6 -15 -8 -30 -4 -34 4 -4 0 -6 -8 -3 -8 2
-16 14 -18 26 -2 12 -7 22 -12 22 -18 0 -27 -33 -19 -65 10 -34 8 -62 -4 -82
-5 -7 1 -10 18 -9 26 3 29 -1 40 -66 9 -55 22 -55 47 -1 13 27 34 53 49 60 16
8 30 27 39 52 11 35 11 48 -4 101 -12 42 -17 94 -16 173 1 61 1 118 1 125 -1
6 -9 12 -20 12 -15 0 -22 -15 -37 -71z"/>
<path d="M7994 814 c3 -9 6 -20 6 -25 0 -5 4 -9 9 -9 4 0 6 11 3 25 -2 14 -9
25 -14 25 -6 0 -7 -7 -4 -16z"/>
<path d="M7750 792 c0 -12 19 -26 26 -19 2 2 -2 10 -11 17 -9 8 -15 8 -15 2z"/>
<path d="M6055 770 c-13 -21 -16 -121 -5 -155 6 -18 18 -39 27 -47 14 -12 15
-7 9 47 -4 33 -8 81 -9 107 -2 49 -10 67 -22 48z"/>
<path d="M6925 720 c-16 -25 38 -170 63 -170 7 0 12 13 13 33 0 17 2 40 4 50
2 9 -5 23 -15 30 -10 7 -24 25 -31 40 -13 28 -24 34 -34 17z"/>
<path d="M7740 707 c0 -18 28 -42 37 -33 9 8 -9 38 -25 44 -7 2 -12 -3 -12
-11z"/>
<path d="M7780 625 c0 -8 5 -15 10 -15 6 0 10 7 10 15 0 8 -4 15 -10 15 -5 0
-10 -7 -10 -15z"/>
<path d="M6046 514 c-3 -12 -3 -30 0 -38 4 -9 1 -16 -6 -16 -8 0 -10 -13 -7
-39 2 -22 0 -44 -5 -49 -15 -15 24 -49 64 -55 32 -5 37 -3 46 21 15 41 22 131
11 138 -6 4 -6 11 2 20 14 17 5 44 -16 44 -12 0 -15 -6 -10 -21 4 -12 3 -19
-1 -16 -12 7 -35 -19 -26 -29 4 -4 1 -4 -6 0 -10 6 -10 11 -1 22 8 10 8 14 1
14 -6 0 -9 6 -6 14 4 10 -1 14 -15 13 -11 -1 -22 -10 -25 -23z"/>
<path d="M7800 460 c0 -66 12 -76 39 -29 12 22 12 29 0 54 -25 52 -39 43 -39
-25z"/>
<path d="M9196 505 c4 -8 8 -15 10 -15 2 0 4 7 4 15 0 8 -4 15 -10 15 -5 0 -7
-7 -4 -15z"/>
<path d="M6944 483 c3 -16 8 -47 11 -70 11 -74 28 -63 20 13 -8 75 -11 84 -26
84 -6 0 -8 -12 -5 -27z"/>
<path d="M7026 374 c-5 -56 -4 -90 3 -97 16 -16 26 19 26 95 0 105 -21 107
-29 2z"/>
<path d="M6331 286 c-5 -17 -12 -57 -16 -88 -4 -37 -12 -61 -22 -67 -19 -10
-55 -3 -47 10 6 10 -19 12 -29 2 -8 -7 21 -43 35 -43 20 0 43 -35 43 -64 0
-31 1 -31 58 -34 l58 -3 -7 74 c-4 43 -2 82 3 91 9 17 -1 67 -27 132 -12 31
-38 25 -49 -10z"/>
<path d="M8140 304 c0 -8 5 -12 10 -9 6 4 8 11 5 16 -9 14 -15 11 -15 -7z"/>
<path d="M6200 280 c-18 -11 -22 -66 -4 -80 20 -17 34 -3 34 33 0 41 -11 59
-30 47z"/>
<path d="M6008 235 c-3 -14 1 -30 8 -36 8 -6 14 -24 14 -40 0 -40 16 -76 39
-88 18 -10 19 -7 23 41 4 59 -13 117 -39 135 -26 20 -40 16 -45 -12z"/>
<path d="M9295 236 c20 -30 25 -32 25 -11 0 8 -9 19 -21 25 -20 11 -20 11 -4
-14z"/>
<path d="M7850 190 c0 -6 4 -18 9 -28 5 -9 13 -30 18 -47 9 -32 36 -41 41 -13
2 9 -9 35 -24 57 -26 39 -44 52 -44 31z"/>
<path d="M7080 111 c0 -5 5 -13 10 -16 6 -3 10 -2 10 4 0 5 -4 13 -10 16 -5 3
-10 2 -10 -4z"/>
<path d="M8806 112 c-2 -4 -1 -14 5 -22 7 -12 9 -10 9 8 0 23 -5 28 -14 14z"/>
<path d="M6980 100 c0 -37 45 -100 72 -100 34 0 22 45 -21 79 -41 33 -51 37
-51 21z"/>
<path d="M7916 33 c-12 -12 -6 -33 9 -33 8 0 15 6 15 14 0 17 -14 28 -24 19z"/>
<path d="M6095 10 c-3 -5 -1 -10 4 -10 6 0 11 5 11 10 0 6 -2 10 -4 10 -3 0
-8 -4 -11 -10z"/>
</g>
</svg>
